<svg width='28' height='28' fill='#868e96' xmlns="http://www.w3.org/2000/svg" data-name="Layer 2" viewBox="0 0 64 80" x="0px" y="0px"><path fill='var(--text-1)' d="M32,52A20,20,0,1,1,47.509,19.373l-1.551,1.262A18.023,18.023,0,1,0,49.5,27.8l1.944-.472A20,20,0,0,1,32,52Z"/><path d="M56.12,16.71a5.786,5.786,0,0,0-4.11-1.68,5.676,5.676,0,0,0-4.09,1.79L32.29,34.21a1.993,1.993,0,0,1-2.75.13l-4.33-4.79-.08-.07a4.5,4.5,0,0,0-7.5,3.5,4.527,4.527,0,0,0,1.56,3.24l9.19,7.83a4.026,4.026,0,0,0,5.23.01L55.82,25.08a5.725,5.725,0,0,0,.3-8.37Z"/></svg>