<?xml version="1.0" encoding="UTF-8"?>
<svg version="1.1" viewBox="0 0 1600 1600" width="1280" height="1280" xmlns="http://www.w3.org/2000/svg">
<path transform="translate(0)" d="m0 0h1600v1600h-1600v-1600z" fill="rgba(0,0,0,0)"/>
<path transform="translate(805 220)" d="m0 0c1.37 0.00205 1.37 0.00205 2.76 0.00415 8.7 0.194 16.2 2.36 24.2 5.5 0.99 0.33 1.98 0.66 3 1 1.49-0.99 1.49-0.99 3-2 1.89-0.254 1.89-0.254 4.05-0.261 1.23-0.0106 1.23-0.0106 2.49-0.0215 0.898 0.00248 1.8 0.00495 2.72 0.00751 0.948-0.00511 1.9-0.0102 2.87-0.0155 3.14-0.0139 6.28-0.0129 9.42-0.0106 2.18-0.00389 4.36-0.00822 6.54-0.013 4.57-0.00747 9.15-0.00717 13.7-0.00191 5.86 0.00579 11.7-0.0111 17.6-0.0343 4.51-0.0147 9.01-0.0156 13.5-0.0125 2.16-5.14e-4 4.32-0.00576 6.49-0.0158 3.02-0.0123 6.05-0.00559 9.07 0.00601 1.34-0.0115 1.34-0.0115 2.71-0.0232 6.18 0.0524 9.44 1.28 14.1 5.46 3.97 6.92 1.33 16-0.25 23.4-6.38 30.5-4.2 62.7 4.98 92.4 2.08 6.91 3.55 13.9 1.95 21.1-2.26 2.82-3.55 3.85-7 5-1.7 0.148-3.4 0.247-5.11 0.316-1.47 0.0628-1.47 0.0628-2.98 0.127-1.02 0.0393-2.05 0.0786-3.1 0.119-1.04 0.0432-2.07 0.0864-3.14 0.131-2.56 0.106-5.12 0.208-7.67 0.307 2.09 8.33 4.41 16.5 7.12 24.7 0.253 0.766 0.507 1.53 0.768 2.32 0.97 2.87 1.92 5.62 3.29 8.32 0.82 1.67 0.82 1.67 0.82 4.67 2.95 0.85 5.55 1.12 8.61 1.1 0.921-0.00296 1.84-0.00592 2.79-0.00897 1.5-0.0125 1.5-0.0125 3.04-0.0252 1.06-0.00467 2.12-0.00935 3.22-0.0142 2.31-0.0105 4.61-0.0232 6.92-0.0377 3.65-0.022 7.31-0.0361 11-0.0477 10.4-0.0336 20.8-0.0752 31.2-0.138 6.35-0.0377 12.7-0.0607 19.1-0.0743 2.42-0.00805 4.84-0.0217 7.26-0.0409 3.39-0.0265 6.77-0.0344 10.2-0.0381 0.997-0.0124 1.99-0.0247 3.02-0.0374 6.65 0.0192 11.8 0.706 17 5.23 0.826 0.994 0.826 0.994 1.67 2.01 0.563 0.657 1.13 1.31 1.71 1.99 8.4 12.1 1.98 32.1-0.0195 45.4-0.503 3.4-1 6.79-1.5 10.2-0.306 2.1-0.617 4.2-0.935 6.3-0.799 5.47-1.23 10.7-1.07 16.2 1.21-0.416 1.21-0.416 2.45-0.84 1.07-0.362 2.14-0.724 3.24-1.1 1.06-0.36 2.11-0.719 3.2-1.09 6.47-2.02 12.7-3.29 19.1-0.473 9.86 5.53 12.8 14.2 16 24.5 0.748 2.21 1.5 4.42 2.25 6.62 5.42 16.4 10.7 32.8 15.8 49.3 0.619 1.98 1.26 3.94 1.92 5.91 1.42 4.29 2.7 8.62 3.99 12.9 0.252 0.843 0.504 1.69 0.764 2.55 0.509 1.7 1.02 3.41 1.52 5.11 0.526 1.75 1.06 3.5 1.6 5.25 2.28 7.39 4.25 14.4 2.17 22-5.05 8.36-9.7 12.4-19 15.3-1.53 0.528-1.53 0.528-3.1 1.07-3.96 1.35-7.93 2.65-11.9 3.93-0.939 0.305-1.88 0.61-2.85 0.924-11 3.57-22 7.09-33.2 10.3-5.97 1.73-11.8 3.79-17.6 5.93-5.16 1.88-5.16 1.88-7.35 1.88-1.24 9.62-1.15 19.2-1.13 28.9-6.76e-4 1.85-0.00165 3.7-0.0029 5.55-0.00147 3.88 6.52e-4 7.76 0.00534 11.6 0.00563 4.89 0.00236 9.78-0.00344 14.7-0.0206 20.4 0.0243 40.8 1.13 61.3 0.0409 0.78 0.0817 1.56 0.124 2.36 0.513 9.61 1.32 19.2 2.19 28.8 0.271 2.99 0.54 5.98 0.809 8.97 0.0708 0.786 0.142 1.57 0.215 2.38 0.553 6.18 1.07 12.4 1.57 18.6 2.23 27 4.47 54.2 9.09 81 1.17-0.0464 2.34-0.0928 3.55-0.141 11.8-0.326 21.9 0.375 31.4 8.14 6.71 6.45 11.6 15 12.2 24.3 0.158 8.1-0.55 14.4-4.24 21.7-0.592 1.37-1.18 2.75-1.75 4.12-0.619 1.42-0.619 1.42-1.25 2.88 1.98 2.64 3.96 5.28 6 8 6.78-1.7 9.42-7.38 12.9-13.1 7.33-13.6 8.56-27.4 8.45-42.6 7.94e-4 -1.5 0.0029-3 0.0062-4.49 0.00507-4.01-0.00826-8.02-0.0255-12-0.0152-4.21-0.0139-8.43-0.0147-12.6-0.00367-7.06-0.0185-14.1-0.0412-21.2-0.029-9.07-0.0392-18.1-0.0437-27.2-0.00397-7.81-0.0165-15.6-0.0303-23.4-0.0041-2.51-0.00703-5.02-0.0098-7.52-0.00488-3.92-0.0151-7.85-0.0294-11.8-0.00454-1.44-0.00736-2.89-0.00841-4.33-0.00174-1.96-0.0102-3.92-0.0191-5.88-0.00297-1.1-0.00595-2.2-0.00901-3.33 0.145-2.4 0.145-2.4-1.13-3.45-2.21-0.186-4.41-0.323-6.62-0.438-11.3-0.792-17.8-3.87-25.8-12-4.15-6.54-5.64-12.8-4.62-20.6 1.85-7.57 5.85-14.2 12-19 8.63-5.18 16.5-5.73 26.4-5.63 1.46-8.31e-4 2.93-0.0033 4.39-0.00731 3.05-0.00284 6.1 0.0117 9.15 0.0393 3.89 0.0341 7.77 0.028 11.7 0.00934 3.02-0.0106 6.04-0.00159 9.05 0.0134 1.43 0.00514 2.87 0.00475 4.3-0.00154 9.68-0.0266 17.3 0.513 24.8 7.01 0.722 0.846 1.44 1.69 2.19 2.56 0.701 0.784 1.4 1.57 2.12 2.38 5.61 7.86 5.73 15.1 4.88 24.6-1.46 7.37-4.73 11.3-10.8 15.6-3.62 2.25-6.45 3.6-10.7 3.97-0.84 0.0793-1.68 0.159-2.54 0.24-0.868 0.0741-1.74 0.148-2.63 0.225-1.73 0.154-3.47 0.311-5.2 0.473-0.765 0.0658-1.53 0.132-2.32 0.199-1.81 0.0861-1.81 0.0861-2.79 1.27-1.28 11.5-1.12 23.2-1.06 34.8 0.0247 5.29 0.0303 10.6 0.0395 15.9 0.00238 1.1 0.00475 2.19 0.0072 3.33 0.0345 17.1-0.0411 34.3-0.17 51.4-0.04 5.37-0.072 10.7-0.0871 16.1-0.0153 5.35-0.0497 10.7-0.0973 16.1-0.0146 1.99-0.0227 3.99-0.0236 5.98-0.0259 29.9-9.63 54.5-31 75.8-2.16 1.97-4.35 3.83-6.64 5.64-1.12 0.888-1.12 0.888-2.25 1.79-24 17.9-57.1 22.2-85.7 28.2-0.846 0.178-1.69 0.356-2.56 0.539-61.7 12.9-124 19.5-187 21.5-0.00365 0.765-0.00729 1.53-0.011 2.32-0.0381 7.25-0.0951 14.5-0.173 21.8-0.0393 3.73-0.0716 7.45-0.0871 11.2-0.0153 3.61-0.0499 7.21-0.0973 10.8-0.0147 1.37-0.0227 2.73-0.0236 4.1-0.0148 11.9-1.55 21.4-9.92 30.2-1.68 1.66-1.68 1.66-3.26 2.95-1.89 2.25-1.85 3.68-1.94 6.59-0.0354 0.938-0.0709 1.88-0.107 2.84-0.0226 0.976-0.0451 1.95-0.0684 2.96-0.0342 0.988-0.0683 1.98-0.104 2.99-0.0825 2.44-0.152 4.88-0.209 7.32 9.95 2.58 19.9 4.88 30 6.84 3.8 0.738 7.6 1.49 11.4 2.25 0.789 0.156 1.58 0.313 2.39 0.474 8.73 1.74 17.4 3.55 26.2 5.38 1.18 0.249 1.18 0.249 2.38 0.502 13.3 2.8 26.5 5.72 39.8 8.69 8.18 1.84 16.4 3.6 24.6 5.3 27.2 5.65 49.5 14.6 65.3 38.6 0.637 0.945 1.27 1.89 1.93 2.86 6.82 10.8 11.1 23.7 11.1 36.5 0.0058 0.991 0.0116 1.98 0.0176 3 0.00651 2.06-0.0143 4.12-0.0625 6.18-0.0216 5.61-0.0216 5.61 2.7 10.3 2.08 1.55 2.08 1.55 4.29 2.87 2.76 1.72 4.39 3.87 6.27 6.51 0.624 0.851 1.25 1.7 1.89 2.58 4.6 7.84 6.62 14.9 6.55 24-0.0058 0.961-0.0116 1.92-0.0176 2.91-0.354 10.7-4.29 17.8-11.5 25.8-8.83 8.08-19.7 11-31.4 10.8-11.5-1.04-21.9-6.96-29.8-15.2-6.26-7.95-9.78-18.3-8.75-28.5 2.31-13.3 9.15-23.3 19.8-31.5 0.66-0.33 1.32-0.66 2-1-0.705-17.6-3.04-33.5-16.5-46.1-12.4-9.75-30.6-11.4-45.7-14.5-9.37-1.91-18.7-3.92-28.1-5.99-10.5-2.33-21.1-4.53-31.6-6.59-7.54-1.49-15-3.2-22.5-4.97-10.5-2.48-21-4.41-31.6-5.88-1.21 3.82-1.2 7.63-1.26 11.6-0.0146 0.76-0.0292 1.52-0.0443 2.3-0.126 6.99-0.195 14-0.248 21-0.0358 4.69-0.0892 9.38-0.185 14.1-0.0929 4.54-0.141 9.09-0.159 13.6-0.0141 1.73-0.0437 3.46-0.0893 5.18-0.553 9.44-0.553 9.44 2.96 17.8 2.26 1.76 4.51 3.08 7.02 4.44 2.52 2.77 2.52 2.77 4.38 5.38 0.626 0.853 1.25 1.71 1.9 2.59 6.23 11 6.9 25.2 3.92 37.3-1.17 2.54-2.44 4.52-4.19 6.7-0.678 0.868-1.36 1.74-2.05 2.63-8.34 9.91-16.6 14.1-29.5 15.7-11 0.536-20.9-3.76-29.5-10.3-0.887-0.578-1.77-1.16-2.69-1.75-3.65-3.55-5.93-7.77-8.31-12.2-0.345-0.628-0.691-1.26-1.05-1.9-3.77-8.13-3.12-18.7-0.328-27 3.93-9.24 10.1-18.5 19.4-23.1-0.107-10.7-0.22-21.3-0.339-32-0.0553-4.96-0.109-9.91-0.158-14.9-0.0476-4.78-0.0999-9.56-0.156-14.3-0.0205-1.83-0.0392-3.65-0.0561-5.48-0.024-2.55-0.054-5.1-0.0856-7.65-0.00576-0.763-0.0115-1.53-0.0174-2.31 0.259-3.46 0.259-3.46-1.19-6.33-5.86-0.365-11.1 0.683-16.8 1.94-0.947 0.203-1.89 0.406-2.87 0.615-3.08 0.662-6.15 1.33-9.23 2.01-2.14 0.461-4.27 0.922-6.41 1.38-6.22 1.34-12.4 2.7-18.7 4.06-1.63 0.355-3.26 0.709-4.88 1.06-6.63 1.44-13.3 2.9-19.9 4.35-6 1.32-12 2.61-18 3.89-3.45 0.736-6.9 1.48-10.4 2.22-4.72 1.02-9.45 2.01-14.2 3-2.39 0.51-4.78 1.02-7.18 1.53-1.08 0.221-2.16 0.442-3.27 0.67-13.9 3.01-26.9 8.22-35.2 20.3-4.64 7.97-7.21 15.8-8 25-0.124 0.82-0.247 1.64-0.375 2.48-0.267 2.75-0.31 4.83 0.375 7.52 2 2.09 4.14 3.55 6.55 5.17 7.39 5.52 12.5 15.5 13.9 24.5 0.191 2.76 0.243 5.48 0.211 8.25-0.00765 0.966-0.0153 1.93-0.0232 2.93-0.238 7.65-1.73 13.1-6.6 19.1-0.795 1.1-0.795 1.1-1.61 2.21-7.22 9.21-17.4 13.6-28.9 15.1-12.8 0.642-24.1-5.16-33.5-13.3-8.34-9.17-10.9-18.8-10.4-31 0.932-12.3 8.57-21.8 17.5-29.7 2-1.4 3.54-1.93 5.93-2.35l-1-2.62c-4.88-17.7 2.39-37.1 11-52.4 7.43-12.1 17.5-22.2 30-29 1.04-0.584 2.08-1.17 3.15-1.77 7.46-3.85 14.9-6.16 23-8.05 1.08-0.255 2.17-0.51 3.28-0.772 13.3-3.09 26.6-5.91 39.9-8.72 2-0.425 4.01-0.85 6.01-1.27 8.54-1.81 17.1-3.61 25.6-5.41 1.71-0.361 1.71-0.361 3.46-0.73 6.97-1.47 13.9-2.93 20.9-4.4 1.29-0.27 1.29-0.27 2.6-0.545 2.43-0.509 4.86-1.02 7.3-1.52 1.12-0.234 1.12-0.234 2.27-0.474 4.22-0.877 8.45-1.73 12.7-2.55 5.66-1.11 11.2-2.31 16.7-3.96 1.16-0.344 2.33-0.688 3.53-1.04 0.837-0.254 1.67-0.508 2.54-0.77 1.2-11.7 1.2-11.7-1.38-22.8-1.77-1.89-3.63-3.51-5.62-5.17-7.61-9.73-8.45-20.3-8.51-32.3-0.0169-1.35-0.035-2.71-0.0544-4.06-0.0471-3.53-0.0772-7.06-0.103-10.6-0.03-3.61-0.0765-7.23-0.121-10.8-0.0856-7.06-0.153-14.1-0.209-21.2-0.659 0.00589-1.32 0.0118-2 0.0179-14 0.108-27.9-0.0473-41.8-1.14-0.837-0.0634-1.67-0.127-2.54-0.192-58.2-4.45-116-13.4-173-26.7-1.41-0.328-1.41-0.328-2.84-0.664-31.2-7.35-60.3-19.3-78-47.5-9.2-15.3-15.1-31.5-15.7-49.5-0.0373-0.932-0.0746-1.86-0.113-2.82-0.48-13.3-0.511-26.6-0.585-39.9-0.0223-3.84-0.0494-7.67-0.0761-11.5-0.0494-7.23-0.0945-14.5-0.138-21.7-0.0498-8.24-0.105-16.5-0.16-24.7-0.113-16.9-0.22-33.8-0.323-50.8-1.3-0.11-2.6-0.219-3.93-0.332-1.72-0.16-3.45-0.32-5.17-0.48-0.853-0.0703-1.71-0.141-2.59-0.213-7.38-0.71-12.9-2.68-18.3-7.97-5.85-7.6-7.93-14.5-7-24 1.94-8.55 5.58-14.3 12.8-19.2 8.68-5.18 17-5.93 26.8-5.83 0.816 0.00462 1.63 0.00923 2.47 0.014 1.73 0.0106 3.47 0.0236 5.2 0.0388 2.63 0.0213 5.26 0.0311 7.88 0.0385 4.41 0.0163 8.81 0.0669 13.2 0.135 1.8 0.0235 3.59 0.0377 5.39 0.043 11.5 0.0404 19.7 0.152 28.7 8.02 7.26 8.48 9.07 13.9 8.83 25.1-0.606 6.33-2.62 10.5-6.6 15.4-7.86 6.43-14.1 8.27-24.1 8.81l-2.24 0.131c-1.81 0.105-3.63 0.206-5.44 0.307-0.0469 18.9-0.0821 37.8-0.104 56.7-0.0103 8.77-0.0243 17.5-0.0473 26.3-0.02 7.65-0.0329 15.3-0.0373 23-0.00259 4.05-0.0086 8.09-0.0233 12.1-0.0137 3.82-0.0177 7.64-0.0148 11.5-7.98e-4 2.04-0.0115 4.09-0.0226 6.13 0.0417 19.1 2.53 39.3 15.9 54.1 2.55 2.25 4.95 3.78 8.36 4.18l0.875-2.75c1.12-3.25 1.12-3.25 2.4-4.98 0.997-3.13-0.142-4.91-1.54-7.75-0.346-0.664-0.692-1.33-1.05-2.01-4.31-8.55-6.53-16-3.82-25.6 4.1-10.5 9.96-18.7 20.1-23.9 9.12-3.85 17.4-3.4 27-2 0.105-1.07 0.21-2.15 0.319-3.26 0.931-9.27 2.02-18.5 3.27-27.7 11.1-83 14.2-168-1.05-339-1.27-8.75-2.52-17.5-3.75-26.3-0.0937-0.667-0.187-1.33-0.284-2.02-0.861-6.13-1.72-12.3-2.58-18.4-0.568-4.06-1.14-8.11-1.71-12.2-0.0929-0.663-0.186-1.33-0.282-2.01-1.33-9.45-2.69-18.9-4.07-28.4-0.331-2.27-0.662-4.54-0.992-6.81-0.608-4.18-1.23-8.35-1.85-12.5-0.272-1.87-0.545-3.73-0.816-5.6-0.125-0.817-0.249-1.63-0.377-2.48-1.45-10.1-1.8-18.3 4.16-27 4.56-5.13 9.3-7.72 16.3-8.25 1.18 0.00184 2.36 0.00369 3.58 0.00559 0.663-0.00171 1.33-0.00342 2.01-0.00518 2.21-0.00328 4.41 0.00768 6.62 0.0186 1.59 5.64e-4 3.17 2.47e-4 4.76-8.85e-4 4.3-5.73e-4 8.6 0.0112 12.9 0.0251 4.5 0.0125 8.99 0.0137 13.5 0.0161 8.51 0.00621 17 0.0226 25.5 0.0427 9.69 0.0224 19.4 0.0334 29.1 0.0434 19.9 0.0209 39.9 0.0576 59.8 0.101-0.66-13.5-1.32-27.1-2-41-6.05-0.872-6.05-0.872-12-1.07-0.918 0.00976-1.84 0.0195-2.78 0.0296-1.45 0.0219-1.45 0.0219-2.94 0.0442-2.09 0.0175-4.17 0.0344-6.26 0.0508-3.27 0.031-6.53 0.0666-9.8 0.113-3.17 0.0425-6.34 0.0658-9.51 0.0864-0.97 0.0186-1.94 0.0372-2.94 0.0564-6.5 0.0245-11.6-0.616-16.7-4.94-3.08-6.88-0.416-14.5 1.69-21.3 9.31-32.7 11.9-71.1 2.25-104-0.456-4.33-0.327-6.39 1.75-10.2 3.1-3.79 5.45-5.8 10.2-6.75 1.68-0.0924 3.37-0.133 5.06-0.138 1.53-0.00818 1.53-0.00818 3.09-0.0165 1.11-0.00104 2.23-0.00208 3.38-0.00316 1.77-0.00762 1.77-0.00762 3.57-0.0154 3.23-0.0135 6.45-0.0229 9.68-0.0314 3.38-0.0107 6.77-0.0293 10.2-0.0478 11.5-0.0618 23-0.116 34.6-0.149 6.37-0.0184 12.7-0.0474 19.1-0.088 3.36-0.021 6.73-0.0365 10.1-0.0388 3.76-0.00491 7.52-0.0281 11.3-0.0553 1.66 0.00451 1.66 0.00451 3.35 0.00911 9.45-0.102 17.3-3.99 26.7-3.93z" fill="#A3B4BC"/>
<path transform="translate(805 220)" d="m0 0c1.37 0.00205 1.37 0.00205 2.76 0.00415 8.7 0.194 16.2 2.36 24.2 5.5 0.99 0.33 1.98 0.66 3 1 0.99-0.66 1.98-1.32 3-2 1.89-0.254 1.89-0.254 4.05-0.261 1.23-0.0106 1.23-0.0106 2.49-0.0215 0.898 0.00248 1.8 0.00495 2.72 0.00751 0.948-0.00511 1.9-0.0102 2.87-0.0155 3.14-0.0139 6.28-0.0129 9.42-0.0106 2.18-0.00389 4.36-0.00822 6.54-0.013 4.57-0.00747 9.15-0.00717 13.7-0.00191 5.86 0.00579 11.7-0.0111 17.6-0.0343 4.51-0.0147 9.01-0.0156 13.5-0.0125 2.16-5.14e-4 4.32-0.00576 6.49-0.0158 3.02-0.0123 6.05-0.00559 9.07 0.00601 1.34-0.0115 1.34-0.0115 2.71-0.0232 6.18 0.0524 9.44 1.28 14.1 5.46 3.97 6.92 1.33 16-0.25 23.4-6.38 30.5-4.2 62.7 4.98 92.4 2.08 6.91 3.55 13.9 1.95 21.1-2.26 2.82-3.55 3.85-7 5-1.7 0.148-3.4 0.247-5.11 0.316-1.47 0.0628-1.47 0.0628-2.98 0.127-1.02 0.0393-2.05 0.0786-3.1 0.119-1.04 0.0432-2.07 0.0864-3.14 0.131-2.56 0.106-5.12 0.208-7.67 0.307 2.09 8.33 4.41 16.5 7.12 24.7 0.253 0.766 0.507 1.53 0.768 2.32 0.97 2.87 1.92 5.62 3.29 8.32 0.82 1.67 0.82 1.67 0.82 4.67 2.95 0.85 5.55 1.12 8.61 1.1 0.921-0.00296 1.84-0.00592 2.79-0.00897 1.5-0.0125 1.5-0.0125 3.04-0.0252 1.06-0.00467 2.12-0.00935 3.22-0.0142 2.31-0.0105 4.61-0.0232 6.92-0.0377 3.65-0.022 7.31-0.0361 11-0.0477 10.4-0.0336 20.8-0.0752 31.2-0.138 6.35-0.0377 12.7-0.0607 19.1-0.0743 2.42-0.00805 4.84-0.0217 7.26-0.0409 3.39-0.0265 6.77-0.0344 10.2-0.0381 0.997-0.0124 1.99-0.0247 3.02-0.0374 6.65 0.0192 11.8 0.706 17 5.23 0.826 0.994 0.826 0.994 1.67 2.01 0.563 0.657 1.13 1.31 1.71 1.99 8.4 12.1 1.98 32.1-0.0195 45.4-0.503 3.4-1 6.79-1.5 10.2-0.306 2.1-0.617 4.2-0.935 6.3-0.799 5.47-1.23 10.7-1.07 16.2 1.21-0.416 1.21-0.416 2.45-0.84 1.07-0.362 2.14-0.724 3.24-1.1 1.06-0.36 2.11-0.719 3.2-1.09 6.47-2.02 12.7-3.29 19.1-0.473 9.86 5.53 12.8 14.2 16 24.5 0.748 2.21 1.5 4.42 2.25 6.62 5.42 16.4 10.7 32.8 15.8 49.3 0.619 1.98 1.26 3.94 1.92 5.91 1.42 4.29 2.7 8.62 3.99 12.9 0.252 0.843 0.504 1.69 0.764 2.55 0.509 1.7 1.02 3.41 1.52 5.11 0.526 1.75 1.06 3.5 1.6 5.25 2.28 7.39 4.25 14.4 2.17 22-5.05 8.36-9.7 12.4-19 15.3-1.53 0.528-1.53 0.528-3.1 1.07-3.96 1.35-7.93 2.65-11.9 3.93-0.939 0.305-1.88 0.61-2.85 0.924-11 3.57-22 7.09-33.2 10.3-5.97 1.73-11.8 3.79-17.6 5.93-5.16 1.88-5.16 1.88-7.35 1.88-0.33 0.66-0.66 1.32-1 2-1.73 0.461-1.73 0.461-4.08 0.82-7.42 1.36-14.5 3.76-21.7 6.05-1.53 0.488-3.07 0.975-4.6 1.46-3.23 1.03-6.45 2.05-9.68 3.08-4.95 1.58-9.91 3.14-14.9 4.69-14.8 4.65-29.6 9.33-44.3 14.3-6.06 2.04-12.1 3.9-18.3 5.65-7.31 2.11-14.5 4.56-21.7 6.99-10.4 3.48-20.8 6.75-31.2 9.86-8.98 2.67-17.9 5.45-26.9 8.28-16.7 5.28-33.4 10.4-50.1 15.4-1.79 0.539-1.79 0.539-3.61 1.09-3.4 1.03-6.8 2.05-10.2 3.07-1.03 0.31-2.06 0.62-3.11 0.939-0.949 0.285-1.9 0.57-2.88 0.864-0.827 0.249-1.65 0.498-2.51 0.754-7.36 2.13-15.7 3.52-23 0.525-7.86-5.07-11.8-11-14.6-19.7-0.29-0.856-0.581-1.71-0.88-2.59-2.68-8.03-5.05-16.2-7.35-24.3-1.19-4.22-2.4-8.39-3.98-12.5-1.35-3.55-2.39-7.08-3.42-10.7-0.713-2.26-1.44-4.51-2.17-6.76-0.419-1.29-0.838-2.58-1.26-3.86-0.216-0.664-0.432-1.33-0.655-2.01-1.79-5.49-3.55-11-5.32-16.5-0.55-1.71-1.1-3.43-1.65-5.14-0.87-2.72-1.72-5.44-2.57-8.17-0.371-1.15-0.371-1.15-0.749-2.32-2.06-6.73-2.87-12.9 0.499-19.4 9-16.3 36-20 52.6-25.2 2.3-0.629 2.3-0.629 4.3-0.629-0.19-0.594-0.38-1.19-0.576-1.8-14.5-45.7-25.9-92.4-33.1-140-0.376-2.46-0.764-4.91-1.16-7.37-3.98-25-6.41-49.7-7.2-75-5.95-1.05-11.7-1.08-17.7-0.992-2.09 0.0175-4.17 0.0344-6.26 0.0508-3.27 0.031-6.53 0.0666-9.8 0.113-3.17 0.0425-6.34 0.0658-9.51 0.0864-0.97 0.0186-1.94 0.0372-2.94 0.0564-6.5 0.0245-11.6-0.616-16.7-4.94-3.08-6.88-0.416-14.5 1.69-21.3 9.31-32.7 11.9-71.1 2.25-104-0.456-4.33-0.327-6.39 1.75-10.2 3.1-3.79 5.45-5.8 10.2-6.75 1.68-0.0924 3.37-0.133 5.06-0.138 1.53-0.00818 1.53-0.00818 3.09-0.0165 1.11-0.00104 2.23-0.00208 3.38-0.00316 1.77-0.00762 1.77-0.00762 3.57-0.0154 3.23-0.0135 6.45-0.0229 9.68-0.0314 3.38-0.0107 6.77-0.0293 10.2-0.0478 11.5-0.0618 23-0.116 34.6-0.149 6.37-0.0184 12.7-0.0474 19.1-0.088 3.36-0.021 6.73-0.0365 10.1-0.0388 3.76-0.00491 7.52-0.0281 11.3-0.0553 1.66 0.00451 1.66 0.00451 3.35 0.00911 9.45-0.102 17.3-3.99 26.7-3.93z" fill="#80959E"/>
<path transform="translate(449 752)" d="m0 0c0.816 0.00462 1.63 0.00923 2.47 0.014 1.73 0.0106 3.47 0.0236 5.2 0.0388 2.63 0.0213 5.26 0.0311 7.88 0.0385 4.41 0.0163 8.81 0.0669 13.2 0.135 1.8 0.0235 3.59 0.0377 5.39 0.043 11.5 0.0404 19.7 0.152 28.7 8.02 7.26 8.48 9.07 13.9 8.83 25.1-0.606 6.33-2.62 10.5-6.6 15.4-7.86 6.43-14.1 8.27-24.1 8.81-0.741 0.0432-1.48 0.0864-2.24 0.131-1.81 0.105-3.63 0.206-5.44 0.307-0.0469 18.9-0.0821 37.8-0.104 56.7-0.0103 8.77-0.0243 17.5-0.0473 26.3-0.02 7.65-0.0329 15.3-0.0373 23-0.00259 4.05-0.0086 8.09-0.0233 12.1-0.0137 3.82-0.0177 7.64-0.0148 11.5-7.98e-4 2.04-0.0115 4.09-0.0226 6.13 0.0417 19.1 2.53 39.3 15.9 54.1 2.55 2.25 4.95 3.78 8.36 4.18 0.268-0.908 0.536-1.82 0.812-2.75 1.08-2.96 2.17-4.87 4.19-7.25 3.4 0.64 5.74 1.98 8.63 3.86 4.94 3.02 9.69 4.88 15.2 6.46 0.96 0.282 1.92 0.564 2.91 0.855 51.2 14.7 103 23.2 156 29 0.731 0.0806 1.46 0.161 2.21 0.244 21 2.3 41.9 3.89 63 4.64 3.37 0.12 6.75 0.25 10.1 0.381 22.4 0.842 44.6 0.723 66.9-0.199 1.08-0.0438 2.16-0.0877 3.28-0.133 18.5-0.762 36.9-1.96 55.3-3.84 2.21-0.224 4.42-0.444 6.62-0.662 94.3-7.41 94.3-7.41 182-38.4 2.5-1.15 2.5-1.15 4.73-1.02 2.88 1.41 4.03 4.25 5.78 6.87 2.06 0.724 2.06 0.724 4 1 4.8-4.56 8.2-9.67 11.2-15.5 0.329-0.597 0.657-1.19 0.996-1.81 5.87-11.7 6.2-25.6 6.11-38.4 7.94e-4 -1.5 0.0029-3 0.0062-4.49 0.00507-4.01-0.00826-8.02-0.0255-12-0.0152-4.21-0.0139-8.43-0.0147-12.6-0.00367-7.06-0.0185-14.1-0.0412-21.2-0.029-9.07-0.0392-18.1-0.0437-27.2-0.00397-7.81-0.0165-15.6-0.0303-23.4-0.0041-2.51-0.00703-5.02-0.0098-7.52-0.00488-3.92-0.0151-7.85-0.0294-11.8-0.00454-1.44-0.00736-2.89-0.00841-4.33-0.00174-1.96-0.0102-3.92-0.0191-5.88-0.00297-1.1-0.00595-2.2-0.00901-3.33 0.145-2.4 0.145-2.4-1.13-3.45-2.21-0.186-4.41-0.323-6.62-0.438-11.3-0.792-17.8-3.87-25.8-12-4.15-6.54-5.64-12.8-4.62-20.6 1.85-7.57 5.85-14.2 12-19 8.63-5.18 16.5-5.73 26.4-5.63 1.46-8.31e-4 2.93-0.0033 4.39-0.00731 3.05-0.00284 6.1 0.0117 9.15 0.0393 3.89 0.0341 7.77 0.028 11.7 0.00934 3.02-0.0106 6.04-0.00159 9.05 0.0134 1.43 0.00514 2.87 0.00475 4.3-0.00154 9.68-0.0266 17.3 0.513 24.8 7.01 0.722 0.846 1.44 1.69 2.19 2.56 0.701 0.784 1.4 1.57 2.12 2.38 5.61 7.86 5.73 15.1 4.88 24.6-1.46 7.37-4.73 11.3-10.8 15.6-3.62 2.25-6.45 3.6-10.7 3.97-0.84 0.0793-1.68 0.159-2.54 0.24-1.3 0.111-1.3 0.111-2.63 0.225-1.73 0.154-3.47 0.311-5.2 0.473-0.765 0.0658-1.53 0.132-2.32 0.199-1.81 0.0861-1.81 0.0861-2.79 1.27-1.28 11.5-1.12 23.2-1.06 34.8 0.0247 5.29 0.0303 10.6 0.0395 15.9 0.00238 1.1 0.00475 2.19 0.0072 3.33 0.0345 17.1-0.0411 34.3-0.17 51.4-0.04 5.37-0.072 10.7-0.0871 16.1-0.0153 5.35-0.0497 10.7-0.0973 16.1-0.0146 1.99-0.0227 3.99-0.0236 5.98-0.0259 29.9-9.63 54.5-31 75.8-2.16 1.97-4.35 3.83-6.64 5.64-1.12 0.888-1.12 0.888-2.25 1.79-24 17.9-57.1 22.2-85.7 28.2-0.846 0.178-1.69 0.356-2.56 0.539-61.7 12.9-124 19.5-187 21.5-0.00365 0.765-0.00729 1.53-0.011 2.32-0.0381 7.25-0.0951 14.5-0.173 21.8-0.0393 3.73-0.0716 7.45-0.0871 11.2-0.0153 3.61-0.0499 7.21-0.0973 10.8-0.0147 1.37-0.0227 2.73-0.0236 4.1-0.0148 11.9-1.55 21.4-9.92 30.2-1.68 1.66-1.68 1.66-3.26 2.95-1.89 2.25-1.85 3.68-1.94 6.59-0.0354 0.938-0.0709 1.88-0.107 2.84-0.0226 0.976-0.0451 1.95-0.0684 2.96-0.0342 0.988-0.0683 1.98-0.104 2.99-0.0825 2.44-0.152 4.88-0.209 7.32 9.95 2.58 19.9 4.88 30 6.84 3.8 0.738 7.6 1.49 11.4 2.25 0.789 0.156 1.58 0.313 2.39 0.474 8.73 1.74 17.4 3.55 26.2 5.38 0.787 0.166 1.57 0.331 2.38 0.502 13.3 2.8 26.5 5.72 39.8 8.69 8.18 1.84 16.4 3.6 24.6 5.3 27.2 5.65 49.5 14.6 65.3 38.6 0.637 0.945 1.27 1.89 1.93 2.86 6.82 10.8 11.1 23.7 11.1 36.5 0.0058 0.991 0.0116 1.98 0.0176 3 0.00651 2.06-0.0143 4.12-0.0625 6.18-0.0216 5.61-0.0216 5.61 2.7 10.3 2.08 1.55 2.08 1.55 4.29 2.87 2.76 1.72 4.39 3.87 6.27 6.51 0.624 0.851 1.25 1.7 1.89 2.58 4.6 7.84 6.62 14.9 6.55 24-0.0058 0.961-0.0116 1.92-0.0176 2.91-0.354 10.7-4.29 17.8-11.5 25.8-8.83 8.08-19.7 11-31.4 10.8-11.5-1.04-21.9-6.96-29.8-15.2-6.26-7.95-9.78-18.3-8.75-28.5 2.31-13.3 9.15-23.3 19.8-31.5 0.66-0.33 1.32-0.66 2-1-0.705-17.6-3.04-33.5-16.5-46.1-12.4-9.75-30.6-11.4-45.7-14.5-9.37-1.91-18.7-3.92-28.1-5.99-10.5-2.33-21.1-4.53-31.6-6.59-7.54-1.49-15-3.2-22.5-4.97-10.5-2.48-21-4.41-31.6-5.88-1.21 3.82-1.2 7.63-1.26 11.6-0.0146 0.76-0.0292 1.52-0.0443 2.3-0.126 6.99-0.195 14-0.248 21-0.0358 4.69-0.0892 9.38-0.185 14.1-0.0929 4.54-0.141 9.09-0.159 13.6-0.0141 1.73-0.0437 3.46-0.0893 5.18-0.553 9.44-0.553 9.44 2.96 17.8 2.26 1.76 4.51 3.08 7.02 4.44 2.52 2.77 2.52 2.77 4.38 5.38 0.626 0.853 1.25 1.71 1.9 2.59 6.23 11 6.9 25.2 3.92 37.3-1.17 2.54-2.44 4.52-4.19 6.7l-2.05 2.63c-8.34 9.91-16.6 14.1-29.5 15.7-11 0.536-20.9-3.76-29.5-10.3-0.887-0.577-1.77-1.16-2.69-1.75-3.65-3.55-5.93-7.77-8.31-12.2-0.345-0.628-0.691-1.26-1.05-1.9-3.77-8.13-3.12-18.7-0.328-27 3.93-9.24 10.1-18.5 19.4-23.1-0.107-10.7-0.22-21.3-0.339-32-0.0553-4.96-0.109-9.91-0.158-14.9-0.0476-4.78-0.0999-9.56-0.156-14.3-0.0205-1.83-0.0392-3.65-0.0561-5.48-0.024-2.55-0.054-5.1-0.0856-7.65-0.00576-0.763-0.0115-1.53-0.0174-2.31 0.259-3.46 0.259-3.46-1.19-6.33-5.86-0.365-11.1 0.683-16.8 1.94-1.42 0.305-1.42 0.305-2.87 0.615-3.08 0.662-6.15 1.33-9.23 2.01-2.14 0.461-4.27 0.922-6.41 1.38-6.22 1.34-12.4 2.7-18.7 4.06-1.63 0.355-3.26 0.709-4.88 1.06-6.63 1.44-13.3 2.9-19.9 4.35-6 1.32-12 2.61-18 3.89-3.45 0.736-6.9 1.48-10.4 2.22-4.72 1.02-9.45 2.01-14.2 3-2.39 0.51-4.78 1.02-7.18 1.53-1.08 0.221-2.16 0.442-3.27 0.67-13.9 3.01-26.9 8.22-35.2 20.3-4.64 7.97-7.21 15.8-8 25-0.124 0.82-0.247 1.64-0.375 2.48-0.267 2.75-0.31 4.83 0.375 7.52 2 2.09 4.14 3.55 6.55 5.17 7.39 5.52 12.5 15.5 13.9 24.5 0.191 2.76 0.243 5.48 0.211 8.25-0.00765 0.966-0.0153 1.93-0.0232 2.93-0.238 7.65-1.73 13.1-6.6 19.1-0.53 0.731-1.06 1.46-1.61 2.21-7.22 9.21-17.4 13.6-28.9 15.1-12.8 0.642-24.1-5.16-33.5-13.3-8.34-9.17-10.9-18.8-10.4-31 0.932-12.3 8.57-21.8 17.5-29.7 2-1.4 3.54-1.93 5.93-2.35-0.33-0.866-0.66-1.73-1-2.62-4.88-17.7 2.39-37.1 11-52.4 7.43-12.1 17.5-22.2 30-29 1.04-0.584 2.08-1.17 3.15-1.77 7.46-3.85 14.9-6.16 23-8.05 1.08-0.255 2.17-0.51 3.28-0.772 13.3-3.09 26.6-5.91 39.9-8.72 2-0.425 4.01-0.85 6.01-1.27 8.54-1.81 17.1-3.61 25.6-5.41 1.71-0.361 1.71-0.361 3.46-0.73 6.97-1.47 13.9-2.93 20.9-4.4 1.29-0.27 1.29-0.27 2.6-0.545 2.43-0.509 4.86-1.02 7.3-1.52 0.749-0.156 1.5-0.313 2.27-0.474 4.22-0.877 8.45-1.73 12.7-2.55 5.66-1.11 11.2-2.31 16.7-3.96 1.16-0.344 2.33-0.688 3.53-1.04 0.837-0.254 1.67-0.508 2.54-0.77 1.2-11.7 1.2-11.7-1.38-22.8-1.77-1.89-3.63-3.51-5.62-5.17-7.61-9.73-8.45-20.3-8.51-32.3-0.0169-1.35-0.035-2.71-0.0544-4.06-0.0471-3.53-0.0772-7.06-0.103-10.6-0.03-3.61-0.0765-7.23-0.121-10.8-0.0856-7.06-0.153-14.1-0.209-21.2-0.659 0.00589-1.32 0.0118-2 0.0179-14 0.108-27.9-0.0473-41.8-1.14-0.837-0.0634-1.67-0.127-2.54-0.192-58.2-4.45-116-13.4-173-26.7-1.41-0.328-1.41-0.328-2.84-0.664-31.2-7.35-60.3-19.3-78-47.5-9.2-15.3-15.1-31.5-15.7-49.5-0.056-1.4-0.056-1.4-0.113-2.82-0.48-13.3-0.511-26.6-0.585-39.9-0.0223-3.84-0.0494-7.67-0.0761-11.5-0.0494-7.23-0.0945-14.5-0.138-21.7-0.0498-8.24-0.105-16.5-0.16-24.7-0.113-16.9-0.22-33.8-0.323-50.8-1.3-0.11-2.6-0.219-3.93-0.332-1.72-0.16-3.45-0.32-5.17-0.48-1.28-0.105-1.28-0.105-2.59-0.213-7.38-0.71-12.9-2.68-18.3-7.97-5.85-7.6-7.93-14.5-7-24 1.94-8.55 5.58-14.3 12.8-19.2 8.68-5.18 17-5.93 26.8-5.83z" fill="#06293D"/>
<path transform="translate(820,1235)" d="m0 0c11.8 1.62 23.4 3.92 35 6.67 7.25 1.71 14.5 3.28 21.8 4.7 14.3 2.81 28.6 5.91 42.9 9.03 4.92 1.08 9.85 2.14 14.8 3.18 3.25 0.692 6.5 1.39 9.75 2.1 1.53 0.329 3.06 0.655 4.6 0.976 12.8 2.69 24.8 5.61 34.2 15.3 0.814 0.818 0.814 0.818 1.64 1.65 10 10.8 11.6 24.1 12.7 38.2-0.297 3.1-0.297 3.1-1.8 4.82-1.02 0.605-1.02 0.605-2.06 1.22-9.58 6.39-15.5 15.8-17.8 27-1.71 11.1 1.62 20.8 7.72 30 6.33 8.18 16.7 12.9 26.7 15 11 0.93 22-1.34 31-8 5.39-5.02 9.06-10.3 12-17 0.99 0.33 1.98 0.66 3 1 1.56 0.155 3.13 0.263 4.7 0.341 0.966 0.0504 1.93 0.101 2.93 0.153 1.06 0.0509 2.12 0.102 3.21 0.154 1.68 0.0854 1.68 0.0854 3.38 0.173 2.43 0.123 4.87 0.245 7.3 0.365 3.9 0.192 7.79 0.389 11.7 0.588 13.5 0.688 27.1 1.34 40.6 1.95 29.3 1.34 58.4 3.06 87.6 6.02 2.57 0.26 5.15 0.512 7.72 0.762 30.7 2.98 30.7 2.98 43.6 5.5 0.737 0.142 1.47 0.284 2.23 0.43 5.24 1.13 10.4 2.85 15 5.57 1.56 2.75 1.56 2.75 2 5-5.14 4.03-9.95 5.26-16.3 6.44-1.11 0.207-2.22 0.414-3.36 0.627-58 10.1-118 11.7-177 13.5-6.99 0.224-14 0.546-21 0.95-30.3 1.74-60.6 2.43-90.9 3.08-0.746 0.0161-1.49 0.0323-2.26 0.0489-95.2 2.06-190 2.25-593-11.4-2.96-0.278-5.91-0.546-8.87-0.811-15.6-1.4-31.1-2.99-46.5-5.97-0.982-0.189-1.96-0.379-2.97-0.574-5.76-1.23-10.5-3.07-15.7-5.93 1.42-4.62 1.42-4.62 3.9-6.22 16.5-5.61 33.9-7.6 51.1-9.37 2.78-0.285 5.56-0.576 8.33-0.875 46.8-5.02 93.7-7 141-9.05 10.6-0.464 21.3-0.961 31.9-1.48 0.403 0.752 0.807 1.5 1.22 2.28 5.73 10.4 14.3 16.5 25.5 20.3 11.6 3.03 22.1 1.58 32.6-4.25 4.84-3.12 8.4-6.64 11.8-11.3 0.508-0.647 1.02-1.29 1.54-1.96 3.87-5.99 3.95-12.1 4.02-19 0.0147-0.926 0.0295-1.85 0.0447-2.81-0.17-11.5-5.05-20.7-12.6-29.2-1.47-1.07-2.96-2.1-4.5-3.06-2.35-1.62-3.33-2.31-4.07-5.1-0.0597-2.69 0.188-5.18 0.57-7.84 0.111-0.977 0.222-1.95 0.336-2.96 1.9-13.9 7.49-24.2 18.2-33.2 17.5-13 45.7-14.5 66.6-18.8 17.3-3.6 34.7-7.24 52-11 0.865-0.185 1.73-0.37 2.62-0.561 8.89-1.9 17.8-3.83 26.6-5.96 3.36-0.706 6.17-0.924 9.59-0.544 2.87 2.87 2.38 5.79 2.46 9.64 0.0245 0.789 0.049 1.58 0.0742 2.39 0.077 2.62 0.138 5.23 0.195 7.85 0.0306 1.34 0.0306 1.34 0.0619 2.71 0.106 4.73 0.198 9.47 0.28 14.2 0.088 4.89 0.228 9.77 0.379 14.7 0.106 3.76 0.173 7.52 0.228 11.3 0.0337 1.8 0.0829 3.6 0.148 5.4 0.49 14.1 0.49 14.1-2.77 18.5-2.28 1.77-4.52 3.07-7.06 4.41-7 6.42-11.6 15.9-12.2 25.3-0.157 8.03 0.293 14.5 4.24 21.7 0.413 0.78 0.825 1.56 1.25 2.36 5.52 9.34 14.6 14.5 24.8 17.6 10 2.34 20.5 1.36 29.7-3.41 8.09-5.26 15.6-13.1 18.3-22.6 0.438-3.61 0.465-7.18 0.438-10.8 0.02-0.934 0.04-1.87 0.0605-2.83-0.00639-9.21-2.8-16.7-8.25-24.1-0.614-0.861-1.23-1.72-1.86-2.61-2.1-2.65-2.1-2.65-4.34-3.59-2.71-1.4-4.2-2.6-6.05-5.05-1.19-5.89-0.98-11.7-0.852-17.7 0.00985-1.75 0.0164-3.5 0.0199-5.25 0.0153-3.66 0.0563-7.32 0.118-11 0.0792-4.69 0.115-9.38 0.135-14.1 0.02-4.48 0.0597-8.96 0.102-13.4 0.00679-0.852 0.0136-1.7 0.0206-2.58 0.0232-2.42 0.0603-4.83 0.102-7.25 0.00538-0.711 0.0108-1.42 0.0163-2.16 0.0851-3.94 0.613-7.01 2.34-10.6z" fill="rgba(0,0,0,0)"/>
<path transform="translate(1034,802)" d="m0 0h1c0.121 1.22 0.242 2.43 0.367 3.69 0.788 7.9 1.58 15.8 2.39 23.7 0.417 4.08 0.832 8.15 1.25 12.2 0.0881 0.869 0.176 1.74 0.267 2.63 1.04 10.2 1.98 20.5 2.67 30.7 1.02 14.9 3.03 29.7 4.94 44.6 0.0979 0.761 0.196 1.52 0.297 2.31 0.529 4.05 1.12 8.09 1.82 12.1 1.17-0.0464 2.34-0.0928 3.55-0.141 11.8-0.326 21.9 0.375 31.4 8.14 6.71 6.45 11.6 15 12.2 24.3 0.156 8.02-0.361 14.5-4.24 21.7-0.857 1.75-0.857 1.75-1.73 3.54-2.18 3.74-4.96 5.6-8.83 7.4-1.04 0.495-1.04 0.495-2.1 1-46.3 21-103 26.9-153 33.1-0.808 0.101-1.62 0.201-2.45 0.305-53 6.57-106 8.95-160 6.95-1.71-0.0639-1.71-0.0639-3.46-0.129-21.6-0.831-43.1-2.49-64.6-4.83-2.69-0.292-5.39-0.578-8.08-0.861-24.7-2.61-49.1-5.95-73.6-10.4-1.13-0.206-2.26-0.412-3.42-0.624-23.7-4.39-47.4-9.81-70.6-16.6-1.07-0.308-2.14-0.617-3.25-0.935-7.37-2.22-14.7-4.81-20.9-9.52-1.74-1.52-1.74-1.52-3.86-1.59-2.9-1.13-3.53-3.28-4.77-5.99-0.296-0.689-0.592-1.38-0.896-2.09-0.307-0.677-0.615-1.35-0.932-2.05-3.5-7.84-4.9-15.3-2.51-23.7 4.1-10.5 9.96-18.7 20.1-23.9 9.12-3.85 17.4-3.4 27-2 0.103-1.04 0.206-2.07 0.312-3.14 1.65-16.3 3.71-32.5 5.73-48.7 0.467-3.75 0.933-7.51 1.4-11.3 0.213-1.7 0.213-1.7 0.429-3.43 0.843-6.81 1.56-13.6 2.13-20.4 2 0 2 0 3.34 1.33 0.527 0.634 1.05 1.27 1.6 1.92 7.19 8.43 14.4 16.8 23.1 23.8 0.993 0.83 1.99 1.66 3.01 2.52 45.4 37.3 109 48 166 51.3 2.48 0.146 4.97 0.304 7.45 0.47 10.3 0.678 20.6 0.937 30.9 0.922 1.21-9.06e-4 1.21-9.06e-4 2.45-0.00183 56.2-0.112 115-6.56 163-39.2 0.549-0.374 1.1-0.748 1.66-1.13 7.96-5.44 15.4-11.2 22.3-17.9 0.708-0.679 1.42-1.36 2.14-2.06 14.3-14.1 24.7-30 34.4-47.4 2.13-3.81 4.32-7.58 6.54-11.3 0.366-0.634 0.733-1.27 1.11-1.92 0.865-1.46 1.81-2.87 2.77-4.27h2c0.33-0.99 0.66-1.98 1-3z" fill="#A3B4BC"/>
<path transform="translate(713,370)" d="m0 0c2 0.312 2 0.312 4 1 1.23 2.46 1.25 4.31 1.43 7.05 0.0713 1.07 0.143 2.14 0.216 3.25 0.0757 1.18 0.151 2.36 0.229 3.58 0.177 2.57 0.355 5.13 0.535 7.7 0.0473 0.678 0.0946 1.36 0.143 2.05 0.148 2.13 0.297 4.25 0.447 6.38 0.0499 0.713 0.0997 1.43 0.151 2.16 1.56 22.2 3.96 44 7.85 65.8 0.22 1.25 0.441 2.5 0.667 3.79 5.14 28.7 12 57.1 19.6 85.3 0.207 0.765 0.413 1.53 0.626 2.32 2.27 8.36 4.63 16.7 7.35 24.9 0.702 2.71 0.849 4.96 0.71 7.74 12.3-2.62 24.1-6.13 36-10 5.06-1.66 10.1-3.28 15.2-4.9 1.03-0.331 2.06-0.663 3.13-1 8.83-2.83 17.7-5.55 26.6-8.26 6.91-2.12 13.8-4.33 20.6-6.69 2.86-0.918 5.7-1.72 8.61-2.49 6.02-1.62 11.9-3.6 17.8-5.61 10.8-3.67 21.7-7.07 32.7-10.4 13.6-4.1 27.1-8.43 40.5-13 6.5-2.21 13-4.29 19.7-6.02 1.91-0.513 3.79-1.14 5.65-1.78 2.56-0.812 2.56-0.812 6.56-0.812 0.33-0.99 0.66-1.98 1-3 2-1 2-1 5-1 1.84-0.455 3.68-0.966 5.5-1.5 1.26-0.369 2.52-0.737 3.82-1.12 1.1-0.324 1.1-0.324 2.22-0.655 2.77-0.816 5.54-1.62 8.31-2.42 14.1-4.12 28.1-8.48 42.1-13.1 1.24-0.407 2.49-0.814 3.77-1.23 1.1-0.363 2.2-0.726 3.34-1.1 6.44-1.95 12.6-3.2 19-0.405 9.86 5.53 12.8 14.2 16 24.5 0.748 2.21 1.5 4.42 2.25 6.62 5.42 16.4 10.7 32.8 15.8 49.3 0.619 1.98 1.26 3.94 1.92 5.91 1.42 4.29 2.7 8.62 3.99 12.9 0.378 1.26 0.378 1.26 0.764 2.55 0.509 1.7 1.02 3.41 1.52 5.11 0.526 1.75 1.06 3.5 1.6 5.25 2.28 7.39 4.25 14.4 2.17 22-5.05 8.36-9.7 12.4-19 15.3-1.53 0.528-1.53 0.528-3.1 1.07-3.96 1.35-7.93 2.65-11.9 3.93-0.939 0.305-1.88 0.61-2.85 0.924-11 3.57-22 7.09-33.2 10.3-5.97 1.73-11.8 3.79-17.6 5.93-5.16 1.88-5.16 1.88-7.35 1.88-0.33 0.66-0.66 1.32-1 2-1.73 0.461-1.73 0.461-4.08 0.82-7.42 1.36-14.5 3.76-21.7 6.05-1.53 0.488-3.07 0.975-4.6 1.46-3.23 1.03-6.45 2.05-9.68 3.08-4.95 1.58-9.91 3.14-14.9 4.69-14.8 4.65-29.6 9.33-44.3 14.3-6.06 2.04-12.1 3.9-18.3 5.65-7.31 2.11-14.5 4.56-21.7 6.99-10.4 3.48-20.8 6.75-31.2 9.86-8.98 2.67-17.9 5.45-26.9 8.28-16.7 5.28-33.4 10.4-50.1 15.4-1.79 0.539-1.79 0.539-3.61 1.09-3.4 1.03-6.8 2.05-10.2 3.07-1.03 0.31-2.06 0.62-3.11 0.939-0.949 0.285-1.9 0.57-2.88 0.864-0.827 0.249-1.65 0.498-2.51 0.754-7.36 2.13-15.7 3.52-23 0.525-7.86-5.07-11.8-11-14.6-19.7-0.29-0.856-0.581-1.71-0.88-2.59-2.68-8.03-5.05-16.2-7.35-24.3-1.19-4.22-2.4-8.39-3.98-12.5-1.35-3.55-2.39-7.08-3.42-10.7-0.713-2.26-1.44-4.51-2.17-6.76-0.419-1.29-0.838-2.58-1.26-3.86-0.216-0.664-0.432-1.33-0.655-2.01-1.79-5.49-3.55-11-5.32-16.5-0.55-1.71-1.1-3.43-1.65-5.14-0.87-2.72-1.72-5.44-2.57-8.17-0.371-1.15-0.371-1.15-0.749-2.32-2.06-6.73-2.87-12.9 0.499-19.4 9-16.3 36-20 52.6-25.2 2.3-0.629 2.3-0.629 4.3-0.629-0.19-0.594-0.38-1.19-0.576-1.8-14.3-45-25.7-90.9-32.7-138-0.485-3.21-0.986-6.42-1.5-9.63-3.14-19.7-5.67-39.2-6.64-59.1-0.042-0.857-0.084-1.71-0.127-2.6-0.112-2.4-0.213-4.79-0.306-7.19-0.0298-0.714-0.0596-1.43-0.0904-2.17-0.054-1.66-0.0523-3.32-0.0385-4.99 0.33-0.33 0.66-0.66 1-1z" fill="#E55725"/>
<path transform="translate(914,371)" d="m0 0c1.92 2.63 1.92 2.63 3 6 0.383 1.09 0.766 2.18 1.16 3.3 0.369 1.19 0.738 2.37 1.12 3.59 0.428 1.35 0.857 2.7 1.29 4.05 0.223 0.703 0.446 1.41 0.676 2.13 7.54 23.6 17.8 45.1 30.3 66.5 1.63 2.79 3.23 5.6 4.82 8.41 1.53 2.69 3.07 5.36 4.61 8.04 0.534 0.938 1.07 1.88 1.62 2.84 6.38 11.1 13.2 22 20.4 32.6 0.465 0.686 0.93 1.37 1.41 2.08 0.876 1.28 1.76 2.57 2.65 3.84 2.95 4.31 2.95 4.31 2.95 7.63-2.4 0.75-4.79 1.5-7.19 2.25-1.1 0.346-1.1 0.346-2.23 0.698-4.17 1.3-8.34 2.59-12.5 3.86-4.06 1.25-8.12 2.52-12.2 3.83-12.7 4.11-25.5 8.09-38.3 12-11.9 3.62-23.8 7.32-35.6 11.4-7.74 2.66-15.5 5.18-23.4 7.31-15.8 4.27-31.3 9.54-46.8 14.7-4.42 1.48-8.85 2.87-13.3 4.17-3.18 0.972-6.31 2.06-9.45 3.14-6 2.04-12.1 3.8-18.2 5.44-0.806 0.219-1.61 0.438-2.44 0.664-0.764 0.2-1.53 0.4-2.32 0.606-0.674 0.178-1.35 0.355-2.04 0.538-2.39 0.438-4.65 0.442-7.07 0.38-9.79-34.1-18.8-68.3-26-103-0.212-1.01-0.424-2.02-0.643-3.07-1.23-5.96-2.33-11.9-3.36-17.9-0.295-1.68-0.295-1.68-0.597-3.4-3.6-20.7-5.77-41.4-7.25-62.4-0.155-2.2-0.312-4.4-0.471-6.61-0.588-8.19-1.15-16.4-1.68-24.6 3.17-1.06 5.41-1.13 8.74-1.13 1.18-0.00315 2.36-0.0063 3.57-0.00955 1.91 0.00304 1.91 0.00304 3.85 0.00613 1.95-0.00144 1.95-0.00144 3.95-0.0029 2.76-0.00147 5.51 6.67e-4 8.27 0.00534 3.54 0.00571 7.08 0.00241 10.6-0.00357 3.37-0.00447 6.74-0.00135 10.1 0.00113 1.28-0.00202 2.55-0.00405 3.87-0.00613 1.76 0.00473 1.76 0.00473 3.55 0.00955 1.56 0.00119 1.56 0.00119 3.14 0.00241 2.34 0.127 2.34 0.127 3.34 1.13 0.16 2.96 0.26 5.89 0.316 8.85 0.0208 0.886 0.0416 1.77 0.063 2.69 0.0656 2.84 0.124 5.69 0.183 8.53 0.0432 1.92 0.0868 3.85 0.131 5.77 0.108 4.72 0.207 9.45 0.307 14.2h37v-41c21.4-0.29 21.4-0.29 30.5-0.404 6.22-0.0781 12.4-0.157 18.7-0.244 5.02-0.0697 10-0.134 15.1-0.195 1.91-0.024 3.82-0.0499 5.73-0.0778 2.69-0.0389 5.37-0.0708 8.06-0.101 1.17-0.0194 1.17-0.0194 2.37-0.0392 11.1-0.105 11.1-0.105 15.6 1.06z" fill="#A4B4BC"/>
<path transform="translate(1034,802)" d="m0 0h1c0.121 1.22 0.242 2.43 0.367 3.69 0.788 7.9 1.58 15.8 2.39 23.7 0.417 4.08 0.832 8.15 1.25 12.2 0.0881 0.869 0.176 1.74 0.267 2.63 1.04 10.2 1.98 20.5 2.67 30.7 1.07 15.6 3.21 31.1 5.24 46.5 0.672 5.15 1.26 10.3 1.82 15.5-5.54 2.17-11 3.92-16.8 5.38-0.839 0.215-1.68 0.431-2.54 0.653-36.6 9.35-73.1 16.7-111 20.9-1.28 0.144-2.56 0.288-3.88 0.436-18.3 2.03-36.7 3.53-55.1 4.63-1.39 0.0868-1.39 0.0868-2.8 0.175-18.8 1.16-37.7 1.07-56.6 1.07-1.29 8.84e-4 -1.29 8.84e-4 -2.61 0.00179-38.9 0.0188-77.5-1.76-116-6.44-4.25-0.513-8.5-0.984-12.8-1.42-14.9-1.56-29.6-3.96-44.3-6.99-3.49-0.717-6.98-1.42-10.5-2.11-18.2-3.67-36.2-7.96-54.1-13-0.682-0.189-1.36-0.378-2.07-0.572-3.65-1.07-6.22-2.39-9.18-4.74 0.175-1.04 0.349-2.07 0.529-3.14 2.25-13.6 3.97-27.3 5.63-41 0.466-3.84 0.936-7.68 1.41-11.5 0.302-2.48 0.604-4.95 0.906-7.43 0.139-1.13 0.277-2.26 0.42-3.43 0.823-6.81 1.53-13.6 2.1-20.4 2 0 2 0 3.34 1.33 0.527 0.634 1.05 1.27 1.6 1.92 7.19 8.43 14.4 16.8 23.1 23.8l3.01 2.52c45.4 37.3 109 48 166 51.3 2.48 0.146 4.97 0.304 7.45 0.47 10.3 0.678 20.6 0.937 30.9 0.922 0.809-6.04e-4 1.62-0.00121 2.45-0.00183 56.2-0.112 115-6.56 163-39.2 0.549-0.374 1.1-0.748 1.66-1.13 7.96-5.44 15.4-11.2 22.3-17.9 0.708-0.679 1.42-1.36 2.14-2.06 14.3-14.1 24.7-30 34.4-47.4 2.13-3.81 4.32-7.58 6.54-11.3 0.366-0.634 0.733-1.27 1.11-1.92 0.865-1.46 1.81-2.87 2.77-4.27h2c0.33-0.99 0.66-1.98 1-3z" fill="#80969F"/>
<path transform="translate(670 224)" d="m0 0c1.02-0.00282 2.04-0.00564 3.09-0.00854 1.67 0.00304 1.67 0.00304 3.38 0.00613 1.18-0.00175 2.36-0.0035 3.57-0.00531 3.23-0.00365 6.45-0.00279 9.68 3.79e-4 3.37 0.00253 6.75 1.84e-4 10.1-0.00139 5.66-0.00182 11.3 5.77e-4 17 0.00534 6.55 0.00545 13.1 0.00368 19.7-0.00183 5.62-0.00453 11.2-0.00518 16.9-0.00256 3.36 0.00156 6.72 0.00176 10.1-0.00154 3.74-0.00253 7.48 0.00132 11.2 0.0069 1.68-0.00304 1.68-0.00304 3.39-0.00613 1.52 0.00423 1.52 0.00423 3.08 0.00854 0.885 3.77e-4 1.77 7.54e-4 2.68 0.00114 2.12 0.126 2.12 0.126 4.12 1.13 1.8-0.0906 3.59-0.247 5.38-0.438 17.4-1.53 32.6 1.12 47.6 10.4 1.71 1.62 3.38 3.29 5 5 1.91 1.74 3.83 3.47 5.75 5.19 22.1 20.3 34.7 45.8 45.8 73.2 0.418 1.03 0.836 2.06 1.27 3.11 2.29 5.79 4.11 11.4 5.17 17.5-0.33 0.33-0.66 0.66-1 1-6.52-0.0544-13-1.31-19.4-2.44-65.4-11.3-172-18.1-229 20.2-2.3 1.2-2.3 1.2-4.61 0.883-0.835-0.34-0.835-0.34-1.69-0.688 1-5.6 2.28-11 3.88-16.5 8.53-31.4 10.3-69 1.12-101-0.456-4.33-0.327-6.39 1.75-10.2 4.55-5.57 8.26-6.87 15.3-6.88z" fill="#A4B5BD"/>
<path transform="translate(713,370)" d="m0 0c2 0.312 2 0.312 4 1 1.23 2.46 1.25 4.31 1.43 7.05 0.0713 1.07 0.143 2.14 0.216 3.25 0.0757 1.18 0.151 2.36 0.229 3.58 0.177 2.57 0.355 5.13 0.535 7.7 0.0473 0.678 0.0946 1.36 0.143 2.05 0.148 2.13 0.297 4.25 0.447 6.38 0.0499 0.713 0.0997 1.43 0.151 2.16 1.56 22.2 3.96 44 7.85 65.8 0.22 1.25 0.441 2.5 0.667 3.79 5.14 28.7 12 57.1 19.6 85.3 0.207 0.765 0.413 1.53 0.626 2.32 2.27 8.36 4.63 16.7 7.35 24.9 0.702 2.71 0.849 4.96 0.71 7.74 12.3-2.62 24.1-6.13 36-10 5.06-1.66 10.1-3.28 15.2-4.9 1.03-0.331 2.06-0.663 3.13-1 8.83-2.83 17.7-5.55 26.6-8.26 6.91-2.12 13.8-4.33 20.6-6.69 2.86-0.918 5.7-1.72 8.61-2.49 6.02-1.62 11.9-3.6 17.8-5.61 10.7-3.58 21.3-7.07 32.1-10.4 1.62-0.508 3.23-1.02 4.85-1.54 2.27-0.728 4.55-1.44 6.83-2.14 0.681-0.222 1.36-0.445 2.06-0.674 2.88-0.871 4.76-1.38 7.67-0.461 1.58 1.24 1.58 1.24 2.19 3.19 0.13 2.02 0.26 4.04 0.391 6.05 1.32 0.33 2.64 0.66 4 1v2c0.66 0.33 1.32 0.66 2 1-2.97 0.99-2.97 0.99-6 2 0.33 0.66 0.66 1.32 1 2 0.775 7.8-0.414 14-3.1 21.3-1.19 3.56-1.45 6-0.902 9.7 1.4 1.81 1.4 1.81 3 3v2c0.549 0.202 1.1 0.405 1.66 0.613 3.26 1.93 5.35 4.68 7.71 7.57 5.06 6.07 10.3 11.9 15.8 17.6 3.67 3.86 6.98 7.71 9.81 12.2-0.33 0.99-0.66 1.98-1 3-3.98 1.81-6.85 2.53-11 1-2.2-1.89-3.7-3.4-5-6-5.98-0.255-10.7 0.476-16.3 2.38-0.702 0.222-1.4 0.443-2.13 0.672-3.2 1.04-5.75 2.08-8.56 3.95-0.432 2.07-0.432 2.07-0.438 4.38-0.267 3.08-0.454 4.45-2.12 7.12-3.52 2.16-6.32 2.3-10.4 2.5-0.33-0.33-0.66-0.66-1-1 0.0654-12.1 2.06-24.1 4-36-2.97 0.99-5.94 1.98-9 3v2h-2v2c-1.76 1.34-3.53 2.66-5.32 3.96-3.36 2.56-6.5 5.33-9.68 8.11-12.6 10.9-12.6 10.9-17 10.9-0.33 1.32-0.66 2.64-1 4 4.57 2.36 8.96 2.7 14 2 3.92-1.42 6.54-3.34 8.94-6.81 2.06-2.19 2.06-2.19 4.01-2.35 3.44 0.358 5.57 0.683 8.05 3.16 0.0966 4.15-1.12 6.55-3.81 9.56-6.47 5.93-14.2 8.7-22.9 8.94-10.3-0.48-16.5-3.8-24.3-10.5-0.33 1.32-0.66 2.64-1 4-2.31 0.66-4.62 1.32-7 2 0.589 0.687 1.18 1.37 1.79 2.08 0.752 0.901 1.5 1.8 2.28 2.73 0.754 0.893 1.51 1.79 2.29 2.71 0.545 0.819 1.09 1.64 1.65 2.48-0.33 0.99-0.66 1.98-1 3-1.62 0.688-1.62 0.688-4 1-1.09 0.165-2.19 0.33-3.31 0.5-4.21-0.57-4.47-1.06-7.06-4.12-2.33-2.66-2.33-2.66-5.57-3.57-2.47 0.52-4.69 1.29-7.05 2.2-1.84 0.649-3.68 1.3-5.53 1.94-1.85 0.659-3.69 1.35-5.53 2.03-2.94 1.02-2.94 1.02-4.94 1.02-0.33 4.29-0.66 8.58-1 13-8.04 3.35-8.04 3.35-12 2-0.217-1.14-0.217-1.14-0.438-2.31-0.526-2.77-0.526-2.77-1.56-5.69-5.15-0.0904-9.92 0.153-15 1v-2h-2c0.0116 0.568 0.0232 1.14 0.0352 1.72 0.119 10.2 0.119 10.2-1.04 14.3-3.15 2.32-5.6 2.93-9.44 3.56-7.46-1.18-12-7.95-16.6-13.6-0.963 0.475-0.963 0.475-1.95 0.96-4 1.36-7.73 1.5-11.9 1.67-0.849 0.0416-1.7 0.0831-2.57 0.126-2.7 0.13-5.41 0.248-8.11 0.366-1.82 0.0865-3.64 0.174-5.47 0.262-12.9 0.613-12.9 0.613-18 0.613-3.15-9.69-6.28-19.4-9.39-29.1-0.557-1.74-1.12-3.48-1.68-5.22-0.867-2.71-1.72-5.42-2.56-8.14-0.247-0.765-0.494-1.53-0.749-2.32-2.06-6.73-2.87-12.9 0.499-19.4 9-16.3 36-20 52.6-25.2 2.3-0.629 2.3-0.629 4.3-0.629-0.19-0.594-0.38-1.19-0.576-1.8-14.3-45-25.7-90.9-32.7-138-0.485-3.21-0.986-6.42-1.5-9.63-3.14-19.7-5.67-39.2-6.64-59.1-0.042-0.857-0.084-1.71-0.127-2.6-0.112-2.4-0.213-4.79-0.306-7.19-0.0298-0.714-0.0596-1.43-0.0904-2.17-0.054-1.66-0.0523-3.32-0.0385-4.99 0.33-0.33 0.66-0.66 1-1z" fill="#F47348"/>
<path transform="translate(820,1235)" d="m0 0c11.8 1.62 23.4 3.92 35 6.67 7.25 1.71 14.5 3.28 21.8 4.7 14.3 2.81 28.6 5.91 42.9 9.03 4.92 1.08 9.85 2.14 14.8 3.18 3.25 0.692 6.5 1.39 9.75 2.1 1.53 0.329 3.06 0.655 4.6 0.976 12.8 2.69 24.8 5.61 34.2 15.3 0.543 0.545 1.09 1.09 1.64 1.65 10 10.8 11.6 24.1 12.7 38.2-0.297 3.1-0.297 3.1-1.8 4.82-0.679 0.403-1.36 0.807-2.06 1.22-9.58 6.39-15.5 15.8-17.8 27-0.906 5.8-0.123 10.9 1.04 16.6 0.124 0.794 0.247 1.59 0.375 2.41-1.88 1.88-5.07 1.13-7.57 1.13-0.692 0.00173-1.38 0.00346-2.1 0.00524-2.32 0.00439-4.64 0.0014-6.96-0.00182-1.64 0.00101-3.28 0.00235-4.92 4e-3 -4.42 0.00271-8.84-0.00178-13.3-0.00824-2.74-0.00355-5.47-0.00519-8.21-0.00626-31.3-0.0152-62.7-0.379-94-1.12-0.918-2.75-1.13-4.47-1.18-7.32-0.366-14.9-2.5-25.3-12.8-36.7-0.645-0.313-1.29-0.626-1.95-0.948-2.71-1.4-4.2-2.6-6.05-5.05-1.19-5.89-0.98-11.7-0.852-17.7 0.00985-1.75 0.0164-3.5 0.0199-5.25 0.0153-3.66 0.0563-7.32 0.118-11 0.0792-4.69 0.115-9.38 0.135-14.1 0.02-4.48 0.0597-8.96 0.102-13.4 0.0102-1.28 0.0102-1.28 0.0206-2.58 0.0232-2.42 0.0603-4.83 0.102-7.25 0.00538-0.711 0.0108-1.42 0.0163-2.16 0.0851-3.94 0.613-7.01 2.34-10.6z" fill="rgba(0,0,0,0)"/>
<path transform="translate(778,1236)" d="m0 0c2.87 2.87 2.38 5.79 2.46 9.64 0.0245 0.789 0.049 1.58 0.0742 2.39 0.077 2.62 0.138 5.23 0.195 7.85 0.0204 0.894 0.0409 1.79 0.0619 2.71 0.106 4.73 0.198 9.47 0.28 14.2 0.088 4.89 0.228 9.77 0.379 14.7 0.106 3.76 0.173 7.52 0.228 11.3 0.0337 1.8 0.0829 3.6 0.148 5.4 0.49 14.1 0.49 14.1-2.77 18.5-2.28 1.77-4.52 3.07-7.06 4.41-6.5 5.96-11.7 15.3-12.1 24.2 0.00524 0.775 0.0105 1.55 0.0159 2.35 0.00322 0.844 0.00645 1.69 0.00977 2.56 0.00838 0.873 0.0168 1.75 0.0254 2.64 0.00677 1.33 0.00677 1.33 0.0137 2.69 0.0118 2.19 0.0291 4.37 0.0488 6.56-5.85 0.825-11.6 1.2-17.5 1.32-1.41 0.0313-1.41 0.0313-2.84 0.0632-3.14 0.0669-6.28 0.126-9.43 0.183-1.09 0.0208-2.18 0.0417-3.3 0.0632-21.8 0.407-43.7 0.484-65.5 0.497-2.61 0.00207-5.21 0.00583-7.82 0.00991-4.13 0.00584-8.25 0.00601-12.4 0.00154-1.54-0.00104-3.08-4.71e-4 -4.62 0.00176-2.11 0.00253-4.22-0.00121-6.33-0.00675-1.19-7.96e-4 -2.38-0.00159-3.61-0.00241-2.66-0.127-2.66-0.127-3.66-1.13-0.109-1.59-0.156-3.18-0.176-4.78-0.0238-0.989-0.0477-1.98-0.0723-3-0.0422-2.07-0.0739-4.15-0.0938-6.22-0.331-12-4.75-21.1-12.7-30-1.47-1.07-2.96-2.1-4.5-3.06-2.35-1.62-3.33-2.31-4.07-5.1-0.0597-2.69 0.188-5.18 0.57-7.84 0.166-1.47 0.166-1.47 0.336-2.96 1.9-13.9 7.49-24.2 18.2-33.2 17.5-13 45.7-14.5 66.6-18.8 17.3-3.6 34.7-7.24 52-11 0.865-0.185 1.73-0.37 2.62-0.561 8.89-1.9 17.8-3.83 26.6-5.96 3.36-0.706 6.17-0.924 9.59-0.544z" fill="rgba(0,0,0,0)"/>
<path transform="translate(934,412)" d="m0 0c0.99 0.33 1.98 0.66 3 1 1.49 0.0829 2.99 0.109 4.49 0.1 0.92-0.00296 1.84-0.00592 2.79-0.00897 1.01-0.00831 2.01-0.0166 3.05-0.0252 1.06-0.00467 2.12-0.00935 3.22-0.0142 2.31-0.0105 4.62-0.0232 6.93-0.0377 3.66-0.022 7.31-0.0361 11-0.0477 10.4-0.0336 20.8-0.0752 31.2-0.138 6.36-0.0377 12.7-0.0607 19.1-0.0743 2.42-0.00805 4.84-0.0217 7.27-0.0409 3.39-0.0265 6.78-0.0344 10.2-0.0381 0.999-0.0124 2-0.0247 3.03-0.0374 6.66 0.0192 11.8 0.703 17 5.23 0.826 0.994 0.826 0.994 1.67 2.01 0.563 0.657 1.13 1.31 1.71 1.99 8.4 12.1 1.98 32.1-0.0195 45.4-0.503 3.4-1 6.79-1.5 10.2-0.306 2.1-0.617 4.2-0.935 6.3-0.799 5.47-1.23 10.7-1.07 16.2-7.09 2.95-14.2 5.49-21.6 7.81-1.06 0.34-2.13 0.679-3.23 1.03-11.7 3.68-23.4 6.95-35.2 10.2-0.33-0.66-0.66-1.32-1-2-0.623-0.28-1.25-0.559-1.89-0.848-2.69-1.46-3.45-2.93-4.93-5.59-2.11-3.69-4.26-7.3-6.56-10.9-10-15.6-19.3-31.6-28.6-47.7-0.53-0.911-1.06-1.82-1.61-2.76-17.4-30-17.4-30-17.4-37.2z" fill="#A4B4BC"/>
<path transform="translate(842 224)" d="m0 0c1.23-0.0127 1.23-0.0127 2.49-0.0256 0.898 0.00607 1.8 0.0121 2.72 0.0184 0.948-0.00526 1.9-0.0105 2.87-0.0159 3.14-0.0132 6.28-0.00445 9.42 0.00568 2.18-0.00202 4.36-0.00493 6.54-0.0087 4.57-0.00443 9.15 0.00202 13.7 0.016 5.86 0.0171 11.7 0.00727 17.6-0.0107 4.51-0.0108 9.01-0.00739 13.5 3.83e-4 2.16 2e-3 4.32-4.55e-4 6.49-0.00744 3.02-0.00762 6.05 4e-3 9.07 0.0207 0.894-0.00607 1.79-0.0121 2.71-0.0184 6.18 0.0632 9.44 1.3 14.1 5.47 3.97 6.92 1.33 16-0.25 23.4-6.38 30.5-4.2 62.7 4.98 92.4 2.08 6.91 3.55 13.9 1.95 21.1-2.26 2.82-3.55 3.85-7 5-1.77 0.148-3.55 0.248-5.32 0.316-1.54 0.0628-1.54 0.0628-3.12 0.127-1.07 0.0393-2.14 0.0786-3.25 0.119-1.08 0.0432-2.17 0.0864-3.28 0.131-2.68 0.106-5.35 0.208-8.03 0.307-2.73-5.98-4.68-12.1-6.62-18.4-14.7-46.6-33.7-101-78.4-127 2.27-2.69 3.54-3.38 7.05-3.38z" fill="#A4B5BD"/>
<path transform="translate(597,481)" d="m0 0c5.98 8.97 8.12 20.1 10.8 30.4 0.217 0.826 0.434 1.65 0.657 2.5 4.67 17.9 8.38 35.9 11.5 54.1 0.209 1.2 0.417 2.4 0.632 3.64 3.22 19 4.9 38.1 6.37 57.4 0.0735 0.921 0.147 1.84 0.223 2.79 3.66 46.8 0.498 96.2-10.2 142-0.237 1.02-0.474 2.04-0.718 3.09-1.45 5.88-3.36 10.9-6.28 16.2h-3c-0.027-2.44-0.0468-4.87-0.0625-7.31-0.00838-0.69-0.0168-1.38-0.0254-2.09-0.0152-3.14 0.086-5.59 1.09-8.6 0.0683-3.03-0.00233-6.06-0.0625-9.09 0.0625-2.91 0.0625-2.91 0.567-4.59 0.734-3.44 0.563-6.84 0.489-10.3-0.013-0.811-0.026-1.62-0.0395-2.46-0.0453-2.71-0.0989-5.42-0.153-8.13-0.0354-1.93-0.0707-3.85-0.106-5.78-0.0972-5.19-0.204-10.4-0.314-15.6-0.0684-3.23-0.135-6.46-0.201-9.69-0.744-35.7-2.28-71.3-4.52-107-0.617-10-1.03-20.1-1.31-30.1-0.0318-1.04-0.0636-2.08-0.0964-3.15-0.0243-0.91-0.0487-1.82-0.0737-2.76-0.0924-2.47-0.0924-2.47-1.17-5.31-0.193-1.68-0.342-3.36-0.465-5.05-0.0768-1.03-0.154-2.06-0.233-3.12-0.0792-1.11-0.158-2.22-0.24-3.37-0.085-1.15-0.17-2.3-0.258-3.48-0.272-3.68-0.539-7.36-0.805-11-0.267-3.66-0.535-7.31-0.805-11-0.167-2.28-0.333-4.55-0.498-6.83-0.414-5.66-0.887-11.3-1.5-17-0.326-3.58-0.344-7.15-0.324-10.7-0.00387-0.71-0.00773-1.42-0.0117-2.15 0.00988-5.16 0.00988-5.16 1.14-6.29z" fill="#FDFDFD"/>
<path transform="translate(914,371)" d="m0 0c1.9 2.58 1.9 2.58 3 6 0.44 1.21 0.881 2.42 1.33 3.66 0.448 1.34 0.891 2.69 1.33 4.04 0.356 1.08 0.356 1.08 0.72 2.17 0.751 2.27 1.5 4.54 2.24 6.82 0.507 1.54 1.02 3.07 1.52 4.61 0.928 2.81 1.85 5.62 2.78 8.43 0.688 2.09 1.38 4.18 2.08 6.27-14.2 0.0233-28.4 0.0409-42.5 0.0518-6.58 0.00523-13.2 0.0123-19.7 0.0236-6.35 0.0108-12.7 0.0168-19 0.0194-2.43 0.00185-4.85 0.00547-7.28 0.0109-3.39 0.00722-6.78 0.00826-10.2 0.0078-1.01 0.0036-2.02 0.00719-3.07 0.0109-0.92-0.00137-1.84-0.00275-2.79-0.00417-0.802 9.22e-4 -1.6 0.00184-2.43 0.00279-1.95-0.123-1.95-0.123-3.95-1.12v-41c21.4-0.29 21.4-0.29 30.5-0.404 6.22-0.0781 12.4-0.157 18.7-0.244 5.02-0.0697 10-0.134 15.1-0.195 1.91-0.024 3.82-0.0499 5.73-0.0778 2.69-0.0389 5.37-0.0708 8.06-0.101 1.17-0.0194 1.17-0.0194 2.37-0.0392 11.1-0.105 11.1-0.105 15.6 1.06z" fill="rgba(0,0,0,0)"/>
<path transform="translate(1034,671)" d="m0 0c-0.33 13.9-0.66 27.7-1 42-5.28-1.98-10.6-3.96-16-6-3.39-0.621-6.03-1.02-9.38-1.06-0.847-0.0247-1.69-0.0495-2.57-0.075-28.8-0.354-59 3.94-86.9 10.6-15.9 3.79-31.7 6.73-48.1 6.51 3.25-2.17 5.95-3.01 9.69-4.12 7.07-2.14 14.1-4.45 21.1-6.81 7.32-2.46 14.7-4.83 22.1-7 7.9-2.32 15.7-4.87 23.5-7.5 9.19-3.1 18.4-6.05 27.7-8.82 7.63-2.29 15.2-4.73 22.8-7.2 32.3-10.5 32.3-10.5 37.2-10.5z" fill="#80969F"/>
<path transform="translate(724 371)" d="m0 0c1.22-0.00315 2.44-0.0063 3.69-0.00955 1.34 0.00179 2.68 0.00384 4.02 0.00613 1.36-6.73e-4 2.73-0.00164 4.09-0.0029 2.86-0.00148 5.72 6.77e-4 8.58 0.00534 3.68 0.0057 7.35 0.00242 11-0.00357 2.82-0.00361 5.63-0.00247 8.45 1.28e-4 1.36 6.69e-4 2.71-1.58e-4 4.07-0.00248 1.89-0.00253 3.78 0.00201 5.67 0.0069 1.62 0.00119 1.62 0.00119 3.27 0.00241 2.43 0.127 2.43 0.127 3.43 1.13 0.0887 3.03 0.115 6.04 0.0977 9.07-0.00101 0.805-0.00201 1.61-0.00305 2.44-0.00525 3.02-0.0192 6.04-0.0321 9.06-0.0206 6.74-0.0412 13.5-0.0625 20.4-28.7 0.495-28.7 0.495-58 1v-2h-2c-1.08-10.6-2.1-21.1-2.69-31.8-0.0483-0.815-0.0965-1.63-0.146-2.47-0.0982-1.92-0.138-3.85-0.166-5.78 1.77-1.77 4.3-1.13 6.7-1.13z" fill="rgba(0,0,0,0)"/>
<path transform="translate(1014,561)" d="m0 0c3.16 2.11 3.43 2.42 4.5 5.79 0.38 1.17 0.38 1.17 0.768 2.36 0.263 0.843 0.525 1.69 0.796 2.55 0.28 0.868 0.559 1.74 0.847 2.63 0.893 2.78 1.77 5.57 2.65 8.36 0.595 1.86 1.19 3.72 1.79 5.58 6.95 21.7 6.95 21.7 6.65 26.7-4.21 1.35-8.72 1.99-12.9 0.189-1.99-1.16-3.9-2.4-5.81-3.69-0.693-0.451-1.39-0.903-2.1-1.37-2.08-1.36-4.15-2.74-6.21-4.13-1.17-0.78-2.33-1.56-3.5-2.34-1.96-1.31-3.91-2.63-5.86-3.97-2.8-1.79-5.66-3.26-8.65-4.69 0.956 3.38 1.92 6.75 2.88 10.1 0.269 0.951 0.539 1.9 0.816 2.88 1.1 3.87 2.21 7.69 3.53 11.5 0.906 2.9 0.629 4.62-0.219 7.5-1.62 0.222-3.25 0.427-4.88 0.625-0.905 0.116-1.81 0.232-2.74 0.352-1.18 0.0116-1.18 0.0116-2.38 0.0234-2.35-2.35-2.79-3.98-3.77-7.14-0.329-1.05-0.659-2.09-0.998-3.17-0.345-1.12-0.69-2.23-1.05-3.38-0.715-2.29-1.43-4.57-2.15-6.86-0.348-1.11-0.695-2.22-1.05-3.37-1.04-3.26-2.15-6.48-3.28-9.7-2.16-6.14-3.53-11.9-3.7-18.4 4.08-2.72 7.21-2.81 12-2 3.18 1.46 5.88 3.42 8.69 5.5 1.56 1.1 3.12 2.2 4.69 3.3 1.16 0.815 1.16 0.815 2.34 1.65 5.21 3.55 10.8 6.54 16.3 9.56-1.69-7.24-3.66-14.2-6.23-21.2-0.839-3.04-0.904-5.65-0.77-8.79 1.43-0.558 2.87-1.1 4.31-1.62 1.2-0.452 1.2-0.452 2.43-0.914 0.746-0.152 1.49-0.304 2.26-0.461z" fill="#FDFDFD"/>
<path transform="translate(843 231)" d="m0 0c6.08 4.08 11.3 9.16 16.4 14.4 0.874 0.875 1.75 1.75 2.65 2.65 29.3 30.8 42.4 73.5 55 113 0.206 0.646 0.413 1.29 0.625 1.96 0.562 1.76 1.12 3.52 1.68 5.29 0.639 1.91 1.33 3.81 2.08 5.69 0.874 2.19 1.52 4.31 2.1 6.6 5.23 19.9 13.2 38.6 22.8 56.8 0.462 0.876 0.925 1.75 1.4 2.65 9.81 18.5 20.1 36.8 31.6 54.3 2.35 3.66 4.67 7.33 7 11 0.364 0.566 0.727 1.13 1.1 1.72 1.14 1.78 2.27 3.56 3.4 5.35 0.691 1.08 1.38 2.17 2.09 3.29 0.464 0.875 0.928 1.75 1.41 2.65-0.33 0.66-0.66 1.32-1 2-4.15-1.31-5.86-2.64-8.13-6.34-0.831-1.33-0.831-1.33-1.68-2.69-0.579-0.958-1.16-1.92-1.75-2.9-1.24-2.01-2.48-4.01-3.72-6.02-0.93-1.52-0.93-1.52-1.88-3.07-1.71-2.78-3.45-5.53-5.21-8.28-0.793-1.24-0.793-1.24-1.6-2.5-0.98-1.53-1.96-3.06-2.94-4.59-3.06-4.82-5.84-9.75-8.54-14.8-2.04-3.75-4.16-7.46-6.28-11.2-5.38-9.42-10.6-18.9-15.3-28.6-0.946-1.95-1.91-3.9-2.87-5.85-5.08-10.4-9.09-21-12.7-31.9-0.571-1.69-1.14-3.38-1.71-5.07-3.1-9.21-6-18.4-8.56-27.8-5.43-19.7-12.9-38.7-21.1-57.4-0.409-0.932-0.817-1.86-1.24-2.83-5.45-12.3-11.7-23.4-19.8-34.2-0.7-0.942-1.4-1.88-2.12-2.86-6.34-8.23-13.5-15.9-22.1-21.8-1.79-1.35-1.79-1.35-3.64-3.32-9.31-8.8-24.8-11.5-37.1-11.2-4.22 0.252-8.41 0.661-12.6 1.16-0.791 0.00773-1.58 0.0155-2.4 0.0234-0.66-0.66-1.32-1.32-2-2 16.7-10.7 41.1-3.09 56.6 6.64z" fill="#06293C"/>
<path transform="translate(937,586)" d="m0 0c2.31 1.88 2.31 1.88 4 4v2c0.824 0.304 0.824 0.304 1.66 0.613 3.26 1.93 5.35 4.68 7.71 7.57 5.06 6.07 10.3 11.9 15.8 17.6 3.67 3.86 6.98 7.71 9.81 12.2-0.33 0.99-0.66 1.98-1 3-3.98 1.81-6.85 2.53-11 1-2.2-1.89-3.7-3.4-5-6-5.98-0.255-10.7 0.476-16.3 2.38-1.05 0.333-1.05 0.333-2.13 0.672-3.2 1.04-5.75 2.08-8.56 3.95-0.432 2.07-0.432 2.07-0.438 4.38-0.267 3.08-0.454 4.45-2.12 7.12-3.52 2.16-6.32 2.3-10.4 2.5-0.33-0.33-0.66-0.66-1-1 0.0396-2.39 0.147-4.74 0.312-7.12 0.0695-1.07 0.0695-1.07 0.14-2.16 0.437-6.18 1.23-12.3 2.14-18.4 0.468-3.29 0.468-3.29 0.402-6.54 0-2.8 0.645-4.91 1.49-7.56 0.938-4.07 1.03-8.25 1.26-12.4 0.246-2.79 0.246-2.79 1.25-4.79 7.65-3.82 7.65-3.82 12-3z" fill="#FDFDFD"/>
<path transform="translate(825,623)" d="m0 0c0.33 0.99 0.66 1.98 1 3h2c1.37 1.53 2.67 3.13 3.94 4.75 3.99 5.01 8.18 9.73 12.6 14.4 3.46 3.67 3.46 3.67 3.46 5.89h2v2h2c1.62 1.83 1.62 1.83 3.44 4.25 0.597 0.789 1.19 1.58 1.81 2.39 0.579 0.779 1.16 1.56 1.75 2.36 0.589 0.696 1.18 1.39 1.79 2.11 0.401 0.624 0.802 1.25 1.21 1.89-0.33 0.99-0.66 1.98-1 3-1.62 0.688-1.62 0.688-4 1-1.64 0.247-1.64 0.247-3.31 0.5-4.21-0.57-4.47-1.06-7.06-4.12-2.33-2.66-2.33-2.66-5.57-3.57-2.47 0.52-4.69 1.29-7.05 2.2-1.84 0.649-3.68 1.3-5.53 1.94-1.85 0.659-3.69 1.35-5.53 2.03-2.94 1.02-2.94 1.02-4.94 1.02-0.33 4.29-0.66 8.58-1 13-8.04 3.35-8.04 3.35-12 2-1.01-3.95-0.891-6.93-0.25-10.9 1.38-9.42 2.24-18.9 3.11-28.4 0.638-6.7 1.27-13.2 3.14-19.7 4.46-3.5 8.58-3.28 14-3z" fill="#FDFDFD"/>
<path transform="translate(790 370)" d="m0 0c1.15-0.00855 1.15-0.00855 2.33-0.0173 1.62-0.00944 3.24-0.016 4.86-0.0198 2.49-0.00974 4.97-0.0408 7.46-0.0723 1.57-0.00653 3.15-0.0118 4.72-0.0156 1.12-0.0185 1.12-0.0185 2.26-0.0374 2.09 0.00909 2.09 0.00909 5.49 0.366 2.03 3.04 2.25 3.6 2.23 7.01-1.51e-4 0.801-3.02e-4 1.6-4.58e-4 2.43-0.0103 0.859-0.0206 1.72-0.0313 2.6-0.00283 0.884-0.00566 1.77-0.00858 2.68-0.0112 2.82-0.0363 5.64-0.0617 8.47-0.01 1.91-0.0192 3.83-0.0273 5.74-0.0221 4.69-0.0566 9.38-0.0977 14.1-5.39 0.0246-10.8 0.0428-16.2 0.0549-1.84 0.00504-3.67 0.0119-5.51 0.0205-2.63 0.0121-5.27 0.0178-7.9 0.0222-1.24 0.00774-1.24 0.00774-2.5 0.0156-1.97 1.96e-4 -3.94-0.0513-5.91-0.113-2.15-2.15-1.26-7.07-1.32-10.1-0.0208-0.909-0.0416-1.82-0.063-2.75-0.0656-2.91-0.124-5.83-0.183-8.74-0.0432-1.97-0.0868-3.94-0.131-5.91-0.107-4.84-0.209-9.68-0.307-14.5 3.66-1.22 7.06-1.18 10.9-1.2z" fill="#06293D"/>
<path transform="translate(852 245)" d="m0 0c1.25 1.15 1.25 1.15 2.54 2.33 2.33 2.35 4.39 4.79 6.4 7.42-32.2 0.488-64.5-0.934-96.7-2.58-1.36-0.0693-1.36-0.0693-2.74-0.14-4.16-0.214-8.32-0.436-12.5-0.672-8.43-0.464-16.8-0.697-25.3-0.567-3.43 0.038-6.57 0.0546-9.84-1.04v-3c8.82-2.1 17.6-2.74 26.6-3.38 2.57-0.181 5.13-0.373 7.7-0.566 21-1.55 41.9-2.24 63-2.61 3.81-0.0684 7.61-0.146 11.4-0.224 2.44-0.0448 4.87-0.0891 7.31-0.133 1.13-0.0239 2.26-0.0478 3.42-0.0724 1.05-0.0169 2.1-0.0337 3.18-0.0511 1.38-0.0255 1.38-0.0255 2.78-0.0514 5.71 0.197 8.45 1.42 12.6 5.34z" fill="#FDFDFD"/>
<path transform="translate(900,603)" d="m0 0c1.4 2.8 1.25 4.9 1 8-1.16 1.72-1.16 1.72-3 3-2.64-0.0312-2.64-0.0312-5.69-0.5-7.28-0.79-11.9 0.466-17.7 4.94-3.06 2.99-4.43 4.89-4.93 9.15-0.0543 7.66-0.0543 7.66 3.3 14.4 5.23 4.53 9.71 6.37 16.7 6.28 3.95-0.473 6.12-1.94 9.35-4.28 0.959-1.39 0.959-1.39 1.94-2.81 2.06-2.19 2.06-2.19 4.01-2.35 3.44 0.358 5.57 0.683 8.05 3.16 0.0966 4.15-1.12 6.55-3.81 9.56-6.47 5.93-14.2 8.7-22.9 8.94-11.1-0.54-18.6-4.33-26.3-12.5-1.9-3.23-3.1-6.37-4-10-0.217-0.793-0.433-1.59-0.656-2.4-0.976-7.37 1.98-15.9 6.21-21.9 9.44-11.2 24.6-15.8 38.4-10.7z" fill="#FDFDFD"/>
<path transform="translate(790,634)" d="m0 0c0.106 6.63-0.164 13.1-0.84 19.7-0.0864 0.879-0.173 1.76-0.262 2.66-0.182 1.84-0.366 3.68-0.552 5.52-0.284 2.8-0.561 5.61-0.836 8.41-0.179 1.8-0.358 3.6-0.537 5.4-0.124 1.24-0.124 1.24-0.249 2.51-0.23 2.26-0.476 4.53-0.723 6.79-0.131 1.31-0.262 2.61-0.397 3.96-0.603 3.04-0.603 3.04-3.23 4.98-3.89 1.23-6.32 1.7-10.4 1.06-4.82-2.93-8.44-7.48-12.1-11.7-2.22-2.58-4.51-5.07-6.82-7.57-4.92-5.4-9.56-11-14.1-16.7-0.74-0.873-1.48-1.75-2.24-2.64-2.03-2.72-2.14-4.04-1.76-7.36 1.24-0.535 2.5-1.05 3.75-1.56 0.696-0.29 1.39-0.58 2.11-0.879 2.61-0.682 3.67-0.653 6.14 0.441 2.3 2.15 2.3 2.15 4.75 4.94 0.435 0.491 0.869 0.981 1.32 1.49 4.66 5.31 9.09 10.8 13.4 16.5 2.54 3.26 4.57 4.97 8.57 6.11-0.0284-1.03-0.0567-2.05-0.0859-3.11 0.00282-6.39 0.778-12.7 1.46-19.1 0.189-1.89 0.189-1.89 0.383-3.81 0.129-1.21 0.258-2.42 0.391-3.67 0.115-1.1 0.23-2.19 0.349-3.32 0.495-2.97 1.13-5.34 2.5-8.01 3.8-1.82 6.03-2.19 10-1z" fill="#FDFDFD"/>
<path transform="translate(940,553)" d="m0 0c-3.3 2.82-6.5 4.01-10.6 5.31-1.35 0.433-2.7 0.867-4.05 1.3-0.707 0.225-1.41 0.45-2.14 0.682-2.2 0.709-4.39 1.44-6.58 2.19-7.04 2.39-14.1 4.68-21.2 6.71-10 2.84-19.8 6.35-29.6 9.8-7.34 2.57-14.7 4.89-22.2 6.97-5.97 1.73-11.8 3.73-17.7 5.72-3.92 1.32-7.84 2.64-11.8 3.95-1.23 0.411-1.23 0.411-2.48 0.831-10.3 3.44-20.6 6.77-30.9 10.1-11.3 3.65-22.5 7.33-33.8 11.2-1.29 0.436-1.29 0.436-2.6 0.88-0.725 0.247-1.45 0.494-2.2 0.749-2.36 0.708-4.72 1.19-7.14 1.64 0.959-0.402 0.959-0.402 1.94-0.812 2.39-1.07 2.39-1.07 3.06-4.19 2.41-1.35 2.41-1.35 5.62-2.71 1.17-0.501 2.35-1 3.55-1.52 1.27-0.53 2.55-1.06 3.82-1.59 1.3-0.546 2.59-1.09 3.89-1.64 8.55-3.58 17.2-6.91 26-9.83 2.35-0.789 4.69-1.61 7.02-2.43 78.7-27.8 78.7-27.8 119-36.5 4.33-1.08 8.51-2.53 12.7-3.97 13-4.43 13-4.43 18.3-2.78z" fill="#FCFCFC"/>
<path transform="translate(1070,545)" d="m0 0c1.71 3.32 2 5.18 2 9-4.62 1.65-9.24 3.3-14 5 0 5.14 0.372 7.9 1.9 12.6 0.397 1.25 0.794 2.5 1.2 3.78 0.424 1.31 0.848 2.61 1.27 3.92 2.53 7.84 5.02 15.6 6.62 23.7-8.32 3.47-8.32 3.47-12 2-1.1-1.76-1.1-1.76-1.95-4.12-0.329-0.905-0.659-1.81-0.998-2.74-1.8-5.37-3.54-10.8-5.2-16.2-0.611-1.99-1.23-3.98-1.85-5.97-3-9.73-3-9.73-3-12-0.808 0.217-1.62 0.433-2.45 0.656-1.07 0.278-2.14 0.557-3.24 0.844-1.06 0.278-2.11 0.557-3.2 0.844-2.85 0.601-5.22 0.916-8.11 0.656-1.81-1.69-1.81-1.69-3-4-0.0468-1.67-0.0525-3.33 0-5 6.62-2.91 13.4-5.08 20.3-7.06 3.77-1.08 7.52-2.19 11.2-3.41 0.727-0.236 1.45-0.472 2.2-0.715 1.39-0.454 2.78-0.916 4.16-1.38 4.76-1.55 4.76-1.55 8.09-0.436z" fill="#FDFDFD"/>
<path transform="translate(713,370)" d="m0 0c2 0.312 2 0.312 4 1 1.23 2.46 1.25 4.31 1.43 7.05 0.0713 1.07 0.143 2.14 0.216 3.25 0.0757 1.18 0.151 2.36 0.229 3.58 0.177 2.57 0.355 5.13 0.535 7.7 0.0473 0.678 0.0946 1.36 0.143 2.05 0.148 2.13 0.297 4.25 0.447 6.38 0.0499 0.713 0.0997 1.43 0.151 2.16 1.56 22.2 3.96 44 7.85 65.8 0.22 1.25 0.441 2.5 0.667 3.79 6.17 34.5 15 68.4 24.3 102 0.229 0.824 0.457 1.65 0.693 2.5 1.43 5.17 2.87 10.3 4.31 15.5-0.66 0.33-1.32 0.66-2 1-0.33 0.66-0.66 1.32-1 2v-3h-2c-14.2-45.4-25.4-91.6-32.6-139-0.385-2.49-0.781-4.97-1.18-7.45-3.14-19.6-5.66-39.1-6.63-59-0.042-0.857-0.084-1.71-0.127-2.6-0.112-2.4-0.213-4.79-0.306-7.19-0.0298-0.714-0.0596-1.43-0.0904-2.17-0.054-1.66-0.0523-3.32-0.0385-4.99 0.33-0.33 0.66-0.66 1-1z" fill="#06293D"/>
<path transform="translate(1285,493)" d="m0 0c2 2 2.97 3.13 3.06 6-3.37 6.34-12.7 8.31-18.9 10.6-1.58 0.579-1.58 0.579-3.18 1.17-2.05 0.753-4.1 1.5-6.16 2.25-5.97 2.18-11.9 4.44-17.8 6.83-5.5 2.21-11 4.36-16.6 6.44-0.654 0.246-1.31 0.492-1.98 0.745-12.3 4.59-12.3 4.59-18.5 4-2-1.19-2-1.19-3-3 0.00391-2.39 0.00391-2.39 1-5 2.35-1.47 4.39-2.47 6.94-3.5 1.15-0.488 1.15-0.488 2.33-0.986 11.4-4.74 23-9.01 34.5-13.4 7.48-2.83 14.9-5.76 22.3-8.78 12.4-5.04 12.4-5.04 15.9-3.36z" fill="#E55725"/>
<path transform="translate(911,342)" d="m0 0c0.549 0.304 1.1 0.608 1.66 0.922 2.57 1.18 4.95 1.74 7.71 2.33 9.83 2.39 22.4 6.29 29.6 13.8 0.812 3.62 0.812 3.62 0 7-2.22 2.91-3.52 3.84-7 5-1.77 0.148-3.55 0.248-5.32 0.316-1.54 0.0628-1.54 0.0628-3.12 0.127-1.07 0.0393-2.14 0.0786-3.25 0.119-1.63 0.0648-1.63 0.0648-3.28 0.131-2.68 0.106-5.35 0.208-8.03 0.307-2.45-5.46-4.39-11-6.19-16.7-0.273-0.841-0.545-1.68-0.826-2.55-0.257-0.813-0.514-1.63-0.779-2.46-0.232-0.73-0.465-1.46-0.704-2.21-0.503-2.09-0.503-2.09-0.503-6.09z" fill="#80969F"/>
<path transform="translate(1193 581)" d="m0 0c2.81 0.807 5.41 1.8 8.09 2.95 1.58 0.673 1.58 0.673 3.19 1.36 1.11 0.478 2.22 0.956 3.37 1.45 1.13 0.474 2.26 0.948 3.42 1.44 3.51 1.48 7.02 2.99 10.5 4.5 1.19 0.5 2.38 0.999 3.61 1.51 6.22 2.71 10.7 4.76 14.5 10.5-1.88 4.88-1.88 4.88-3 6-5.76-0.401-10.3-2.2-15.5-4.62-0.782-0.357-1.56-0.714-2.37-1.08-2.38-1.09-4.76-2.19-7.13-3.29-1.39-0.637-2.77-1.27-4.16-1.91-7.01-3.23-14-6.58-20.8-10.1 0.312-3.38 0.312-3.38 1-7 3-2 3-2 5.35-1.76z" fill="#E55725"/>
<path transform="translate(1180,446)" d="m0 0c2.26 3.39 2.16 4.84 1.55 8.77-0.984 4.01-2.81 7.56-4.67 11.2-0.821 1.67-1.64 3.34-2.46 5.01-0.408 0.832-0.816 1.66-1.24 2.52-2.09 4.37-3.96 8.83-5.8 13.3-1.65 3.9-3.39 7.15-6.38 10.2-6.21-0.211-6.21-0.211-8-2 0.364-6.3 2.05-11.1 4.75-16.7 0.371-0.8 0.742-1.6 1.12-2.43 1.18-2.53 2.37-5.06 3.57-7.59 0.799-1.71 1.6-3.42 2.39-5.14 4.15-8.9 4.15-8.9 6.17-13.1 0.325-0.716 0.651-1.43 0.986-2.17 2.02-3.64 4.43-2.91 8.01-1.83z" fill="#E55725"/>
<path transform="translate(588,1342)" d="m0 0c3.68 2.17 6.27 4.77 8.44 8.44 1.07 4.89 1.21 8.27-1.06 12.8-2.73 3.16-4.4 4.48-8.38 5.75-6 0.258-10.4-1.04-15-5-2.35-2.99-2.42-6.23-2.31-9.98 0.726-4.7 3.6-7.41 7.06-10.4 3.88-1.94 7.04-2.7 11.2-1.62z" fill="#E8EAE9"/>
<path transform="translate(1025 1345)" d="m0 0c3.51 4.72 4.19 8.81 4.19 14.6-1.05 3.48-2.23 5.23-5.2 7.37-4.65 2.44-8.52 2.31-13.5 0.883-3.87-2.26-5.94-4.12-8.31-7.94-1.01-4.43-0.366-7.31 1.75-11.3 5.66-6.76 13.3-9.29 21.1-3.62z" fill="#E8EAE9"/>
<path transform="translate(806,1343)" d="m0 0c3.73 2.63 5.57 5.72 7 10 0.371 5.01 0.118 7.99-3 12-4.09 3.79-7.72 3.49-13.1 3.36-4.81-0.585-7.28-2.27-10.3-6.11-1.44-5.19-1.35-8.88 1.12-13.6 5.22-6.23 10.3-7.21 18.2-5.69z" fill="#E8EAE9"/>
<path transform="translate(874 243)" d="m0 0c10.8 0.121 30.3 1.8 38.5 9.25v2c-10.7 3.55-27.4 4.05-38 0-3.2-3.03-4.63-5.59-5-10 1-1 1-1 4.5-1.25z" fill="#FDFDFD"/>
<path transform="translate(934,602)" d="m0 0c3.95 0.532 5.56 2.3 8.12 5.25 0.683 0.768 1.37 1.54 2.07 2.33 1.82 2.44 2.94 4.51 3.8 7.42-1.33 2.66-2.47 2.74-5.25 3.69-0.768 0.272-1.54 0.544-2.33 0.824-2.78 0.56-4.7 0.207-7.42-0.512-0.0269-2.79-0.0468-5.58-0.0625-8.38-0.00838-0.794-0.0168-1.59-0.0254-2.41-0.0254-5.99-0.0254-5.99 1.09-8.22z" fill="#E55725"/>
<path transform="translate(821,639)" d="m0 0c3.31 0.127 4.24 1.24 6.58 3.65 0.9 1.09 1.79 2.18 2.67 3.29 0.459 0.551 0.918 1.1 1.39 1.67 3.36 4.11 3.36 4.11 3.36 6.39-1.75 0.675-3.5 1.34-5.25 2-1.46 0.557-1.46 0.557-2.95 1.12-2.8 0.875-2.8 0.875-6.8 0.875-1.6-3.2-0.867-6.58-0.625-10.1 0.0438-0.746 0.0877-1.49 0.133-2.26 0.363-5.55 0.363-5.55 1.49-6.68z" fill="#F57348"/>
<path transform="translate(940,553)" d="m0 0c-3.3 2.82-6.5 4.01-10.6 5.31-1.33 0.428-2.67 0.856-4 1.29-0.705 0.224-1.41 0.449-2.14 0.68-2.36 0.761-4.7 1.55-7.05 2.34-0.801 0.271-1.6 0.542-2.43 0.821-1.56 0.529-3.12 1.06-4.68 1.59-6.2 2.08-11.5 3.1-18.1 2.97 3.28-2.19 6.21-3 10-4-0.66-0.66-1.32-1.32-2-2 0.764-0.159 1.53-0.317 2.32-0.48 6.3-1.37 12.4-3 18.5-5.08 14.9-5.09 14.9-5.09 20.2-3.44z" fill="#E4E7E6"/>
<path transform="translate(763,610)" d="m0 0-2 1v2c-3.39 1.15-6.79 2.29-10.2 3.44-1.44 0.488-1.44 0.488-2.91 0.986-1.4 0.469-1.4 0.469-2.82 0.947-0.854 0.288-1.71 0.576-2.59 0.873-2.48 0.753-4.94 1.29-7.5 1.76 0.959-0.402 0.959-0.402 1.94-0.812 2.39-1.07 2.39-1.07 3.06-4.19 2.54-1.41 4.97-2.6 7.62-3.75 1.05-0.493 1.05-0.493 2.12-0.996 4.92-2.16 8.02-2.49 13.3-1.25z" fill="#E3E4E3"/>
<path transform="translate(721,246)" d="m0 0v1c6.93 0.495 6.93 0.495 14 1v1h-14v2c-2.31-0.33-4.62-0.66-7-1v-3c2.46-1.23 4.28-1.07 7-1z" fill="#E8EAE9"/>
</svg>
