<?xml version="1.0" encoding="utf-8"?>
<!-- Generator: Adobe Illustrator 27.5.0, SVG Export Plug-In . SVG Version: 6.00 Build 0)  -->
<svg version="1.1" xmlns="http://www.w3.org/2000/svg" xmlns:xlink="http://www.w3.org/1999/xlink" x="0px" y="0px"
	 viewBox="0 0 500 500" style="enableBackground:new 0 0 500 500;" xml:space="preserve">
<g id="BACKGROUND">
	<rect style="fill:rgba(0,0,0,0);" width="500" height="500"/>
</g>
<g id="OBJECTS">
	<g style="display:none;">
		<g style="display:inline;">
			<line style="fill:none;stroke:#FF5C5C;stroke-miterlimit:10;" x1="39.11" y1="0" x2="39.11" y2="500"/>
			<line style="fill:none;stroke:#FF5C5C;stroke-miterlimit:10;" x1="77.453" y1="0" x2="77.453" y2="500"/>
			<line style="fill:none;stroke:#FF5C5C;stroke-miterlimit:10;" x1="115.797" y1="0" x2="115.797" y2="500"/>
			<line style="fill:none;stroke:#FF5C5C;stroke-miterlimit:10;" x1="154.141" y1="0" x2="154.141" y2="500"/>
			<line style="fill:none;stroke:#FF5C5C;stroke-miterlimit:10;" x1="192.484" y1="0" x2="192.484" y2="500"/>
			<line style="fill:none;stroke:#FF5C5C;stroke-miterlimit:10;" x1="230.828" y1="0" x2="230.828" y2="500"/>
			<line style="fill:none;stroke:#FF5C5C;stroke-miterlimit:10;" x1="269.172" y1="0" x2="269.172" y2="500"/>
			<line style="fill:none;stroke:#FF5C5C;stroke-miterlimit:10;" x1="307.516" y1="0" x2="307.516" y2="500"/>
			<line style="fill:none;stroke:#FF5C5C;stroke-miterlimit:10;" x1="345.859" y1="0" x2="345.859" y2="500"/>
			<line style="fill:none;stroke:#FF5C5C;stroke-miterlimit:10;" x1="384.203" y1="0" x2="384.203" y2="500"/>
			<line style="fill:none;stroke:#FF5C5C;stroke-miterlimit:10;" x1="422.547" y1="0" x2="422.547" y2="500"/>
			<line style="fill:none;stroke:#FF5C5C;stroke-miterlimit:10;" x1="460.89" y1="0" x2="460.89" y2="500"/>
		</g>
		<g style="display:inline;">
			<line style="fill:none;stroke:#FF5C5C;stroke-miterlimit:10;" x1="500" y1="39.11" x2="0" y2="39.11"/>
			<line style="fill:none;stroke:#FF5C5C;stroke-miterlimit:10;" x1="500" y1="77.453" x2="0" y2="77.453"/>
			<line style="fill:none;stroke:#FF5C5C;stroke-miterlimit:10;" x1="500" y1="115.797" x2="0" y2="115.797"/>
			<line style="fill:none;stroke:#FF5C5C;stroke-miterlimit:10;" x1="500" y1="154.141" x2="0" y2="154.141"/>
			<line style="fill:none;stroke:#FF5C5C;stroke-miterlimit:10;" x1="500" y1="192.484" x2="0" y2="192.484"/>
			<line style="fill:none;stroke:#FF5C5C;stroke-miterlimit:10;" x1="500" y1="230.828" x2="0" y2="230.828"/>
			<line style="fill:none;stroke:#FF5C5C;stroke-miterlimit:10;" x1="500" y1="269.172" x2="0" y2="269.172"/>
			<line style="fill:none;stroke:#FF5C5C;stroke-miterlimit:10;" x1="500" y1="307.516" x2="0" y2="307.516"/>
			<line style="fill:none;stroke:#FF5C5C;stroke-miterlimit:10;" x1="500" y1="345.859" x2="0" y2="345.859"/>
			<line style="fill:none;stroke:#FF5C5C;stroke-miterlimit:10;" x1="500" y1="384.203" x2="0" y2="384.203"/>
			<line style="fill:none;stroke:#FF5C5C;stroke-miterlimit:10;" x1="500" y1="422.547" x2="0" y2="422.547"/>
			<line style="fill:none;stroke:#FF5C5C;stroke-miterlimit:10;" x1="500" y1="460.89" x2="0" y2="460.89"/>
		</g>
	</g>
	<g>
		<defs>
			<rect id="SVGID_1_" width="500" height="500"/>
		</defs>
		<clipPath id="SVGID_00000060006785876198115450000001649655329935845046_">
			<use xlink:href="#SVGID_1_"  style="overflow:visible;"/>
		</clipPath>
		<g style="clip-path:url(#SVGID_00000060006785876198115450000001649655329935845046_);">
			<g>
				<g>
					<path style="fill:#93C9B1;" d="M33.276,419.691c-4.906-2.225-8.791-5.247-11.653-9.063s-4.43-8.041-4.702-12.676h19.218
						c0.362,2.909,1.794,5.315,4.294,7.224c2.498,1.908,5.609,2.862,9.336,2.862c3.634,0,6.475-0.726,8.519-2.181
						c2.045-1.452,3.067-3.315,3.067-5.588c0-2.453-1.251-4.294-3.749-5.521c-2.5-1.227-6.474-2.565-11.926-4.021
						c-5.635-1.363-10.245-2.771-13.834-4.226c-3.591-1.452-6.679-3.68-9.269-6.678c-2.59-2.999-3.884-7.041-3.884-12.131
						c0-4.179,1.203-7.995,3.611-11.449c2.406-3.452,5.861-6.178,10.358-8.178c4.498-1.997,9.79-2.998,15.879-2.998
						c8.996,0,16.173,2.249,21.535,6.746c5.36,4.498,8.314,10.563,8.859,18.196H60.672c-0.272-2.999-1.523-5.384-3.748-7.156
						c-2.229-1.771-5.203-2.657-8.928-2.657c-3.454,0-6.112,0.637-7.974,1.908c-1.863,1.273-2.794,3.045-2.794,5.315
						c0,2.545,1.271,4.477,3.816,5.793c2.543,1.317,6.495,2.657,11.857,4.021c5.452,1.362,9.95,2.772,13.494,4.225
						c3.543,1.455,6.61,3.704,9.199,6.747c2.59,3.046,3.93,7.066,4.021,12.063c0,4.361-1.206,8.27-3.612,11.722
						c-2.408,3.454-5.86,6.156-10.358,8.109s-9.745,2.931-15.742,2.931C43.724,423.031,38.183,421.917,33.276,419.691z"/>
				</g>
				<g>
					<path style="fill:#93C9B1;" d="M438.842,427.256l24.966,33.329h-18.664l-19.634-28.724l-5.09,28.724h-13.817l15.877-89.686
						h13.816l-9.211,51.994l29.33-29.087h19.149L438.842,427.256z"/>
				</g>
				<g>
					<path style="fill:#93C9B1;" d="M462.377,266.149c4.007-2.108,8.586-3.164,13.734-3.164c5.991,0,11.411,1.477,16.265,4.43
						c4.851,2.955,8.69,7.152,11.518,12.595c2.827,5.442,4.24,11.752,4.24,18.923c0,7.173-1.414,13.524-4.24,19.05
						c-2.828,5.528-6.667,9.81-11.518,12.848c-4.854,3.038-10.275,4.557-16.265,4.557c-5.233,0-9.81-1.034-13.734-3.101
						c-3.923-2.067-7.068-4.747-9.43-8.038v9.999h-17.72V240.58h17.72v33.796C455.225,271.002,458.368,268.259,462.377,266.149z
						 M487.439,287.984c-1.73-3.079-4.009-5.421-6.835-7.025c-2.828-1.602-5.886-2.405-9.177-2.405
						c-3.208,0-6.224,0.823-9.051,2.468c-2.828,1.645-5.106,4.031-6.835,7.152c-1.73,3.123-2.595,6.794-2.595,11.012
						c0,4.22,0.865,7.891,2.595,11.012c1.729,3.123,4.006,5.506,6.835,7.152c2.827,1.645,5.843,2.468,9.051,2.468
						c3.291,0,6.349-0.842,9.177-2.531c2.826-1.687,5.104-4.092,6.835-7.215c1.729-3.121,2.595-6.835,2.595-11.139
						C490.034,294.714,489.168,291.065,487.439,287.984z"/>
				</g>
				<g>
					<path style="fill:#93C9B1;" d="M482.713-37.997c12.155,6.191,21.547,15.07,28.174,26.646
						c6.624,11.575,9.938,25.082,9.938,40.514c0,15.435-3.314,28.83-9.938,40.187c-6.627,11.357-16.019,20.059-28.174,26.099
						c-12.159,6.044-26.318,9.064-42.48,9.064h-49.578V-47.279h49.578C456.395-47.279,470.554-44.183,482.713-37.997z
						 M481.075,69.786c9.464-9.61,14.197-23.151,14.197-40.624c0-17.616-4.733-31.375-14.197-41.279
						c-9.466-9.9-23.079-14.851-40.842-14.851h-24.68V84.201h24.68C457.995,84.201,471.608,79.396,481.075,69.786z"/>
				</g>
				<g>
					<path style="fill:#93C9B1;" d="M33.992,24.349C40.408,15.252,48.377,8.238,57.897,3.3c9.519-4.935,19.849-7.404,30.992-7.404
						c14.101,0,25.174,3.352,33.213,10.048c8.038,6.7,12.619,16.256,13.75,28.665h-26.02c-1.13-5.781-3.738-10.293-7.827-13.539
						c-4.092-3.243-9.661-4.865-16.712-4.865c-9.873,0-18.335,3.49-25.385,10.471c-7.054,6.981-11.708,16.749-13.963,29.299
						c-0.707,4.515-1.057,8.181-1.057,11c0,9.308,2.327,16.468,6.981,21.472c4.655,5.008,11.139,7.51,19.462,7.51
						c13.962,0,24.255-6.135,30.886-18.405h26.02c-5.5,11.847-13.507,21.261-24.011,28.242
						c-10.508,6.981-22.671,10.472-36.491,10.472c-14.67,0-26.305-4.195-34.905-12.587c-8.604-8.389-12.904-19.78-12.904-34.165
						c0-4.37,0.422-8.885,1.269-13.539C23.309,43.99,27.573,33.446,33.992,24.349z"/>
				</g>
				<g>
					<path style="fill:#93C9B1;" d="M76.413,207.276H42.848l-8.651,16.379H20.471l42.908-80.28h15.225l14.534,80.28H79.297
						L76.413,207.276z M74.683,197.01l-6.575-37.718L48.269,197.01H74.683z"/>
				</g>
				<g>
					<path style="fill:#93C9B1;" d="M319.988,103.039c3.628,4.583,5.443,9.835,5.443,15.754c0,5.349-1.314,10.05-3.939,14.107
						c-2.627,4.06-6.422,7.233-11.386,9.524c-4.966,2.292-10.838,3.438-17.616,3.438h-43.11v-99.97h41.248
						c6.778,0,12.626,1.099,17.545,3.294c4.917,2.197,8.641,5.252,11.171,9.166c2.529,3.917,3.796,8.356,3.796,13.32
						c0,5.825-1.553,10.695-4.654,14.609c-3.104,3.917-7.233,6.685-12.39,8.307C311.729,95.641,316.359,98.456,319.988,103.039z
						 M269.431,87.141h18.333c4.773,0,8.45-1.074,11.028-3.223s3.866-5.228,3.866-9.238s-1.288-7.112-3.866-9.31
						c-2.578-2.195-6.255-3.294-11.028-3.294h-18.333V87.141z M301.012,126.098c2.721-2.292,4.082-5.537,4.082-9.739
						c0-4.297-1.433-7.663-4.297-10.098c-2.864-2.435-6.731-3.652-11.602-3.652h-19.765v26.926h20.194
						C294.495,129.535,298.29,128.39,301.012,126.098z"/>
				</g>
			</g>
			<path style="fill:#303669;" d="M319.754,409.362H50.841c-14.145,0-25.611,11.466-25.611,25.611v0
				c0,14.145,11.467,25.611,25.611,25.611h268.914V409.362z"/>
			<g>
				<g>
					<ellipse style="fill:#5A9A9C;" cx="141.953" cy="434.974" rx="64.065" ry="16.044"/>
					<ellipse style="fill:#303669;" cx="141.953" cy="434.974" rx="60.528" ry="13.156"/>
				</g>
				<g>
					<polygon style="fill:#5A9A9C;" points="40.851,429.228 29.711,434.974 40.851,440.719 51.991,434.974 					"/>
					<polygon style="fill:#5A9A9C;" points="64.945,429.228 53.805,434.974 64.945,440.719 76.085,434.974 					"/>
				</g>
				<g>
					<polygon style="fill:#5A9A9C;" points="220.091,429.228 208.951,434.974 220.091,440.719 231.231,434.974 					"/>
					<polygon style="fill:#5A9A9C;" points="244.185,429.228 233.045,434.974 244.185,440.719 255.325,434.974 					"/>
				</g>
			</g>
			<g>
				<path style="fill:#1F234A;" d="M37.006,456.522c3.991,2.568,8.737,4.063,13.834,4.063h268.914v-4.063H37.006z"/>
				<path style="fill:#1F234A;" d="M37.006,413.426h282.748v-4.063H50.841C45.743,409.362,40.997,410.858,37.006,413.426z"/>
			</g>
			<path style="fill:#5A9A9C;" d="M419.71,456.527V413.42h21.375v-4.058H284.231c-14.145,0-25.611,11.466-25.611,25.611v0
				c0,14.145,11.467,25.611,25.611,25.611h156.854v-4.058H419.71z"/>
			<circle style="fill:#FFF0DD;" cx="118.679" cy="270.052" r="79.031"/>
			<g>
				<g>
					<g>
						<path style="fill:#F58336;" d="M159.142,205.35c9.437-6.924,19.063-13.321,28.827-19.195
							c3.141-5.952,6.204-12.098,9.172-18.457c3.397-7.279,6.522-14.504,9.392-21.663c-9.297,0.947-18.64,2.197-28.01,3.756
							c10.088-3.655,20.207-6.875,30.322-9.667c4.247-11.109,7.857-22.043,10.744-32.69c-6.551,0.288-13.134,0.721-19.743,1.3
							c7.064-2.537,14.145-4.865,21.229-6.987c4.025-16.226,6.308-31.724,5.977-45.666c-26.467,1.355-59.68,17.579-86.033,48.23
							c0.907,11.598,2.27,23.016,4.064,34.226c-3.45-8.985-6.646-18.155-9.573-27.498c-4.302,5.529-8.367,11.425-12.112,17.671
							c-6.556,10.931-11.736,22.248-15.575,33.518c1.556,7.08,3.273,14.072,5.143,20.971c-2.665-4.041-5.282-8.133-7.851-12.275
							c-11.641,41.209-4.691,79.069,12.081,99.128c24.151-12.774,46.097-40.294,65.162-73.639
							C174.597,199.127,166.853,202.105,159.142,205.35z"/>
					</g>
					<path style="fill:none;stroke:#1F234A;stroke-width:2;strokeLinecap:round;strokeLinejoin:round;stroke-miterlimit:10;" d="
						M220.936,62.641c-61.591,67.456-99.645,152.344-108.981,243.421"/>
					<g>
						<path style="fill:#1F234A;" d="M211.288,86.178c-0.382,0.086-0.635,0.459-0.565,0.831c0.031,0.165,0.12,0.301,0.242,0.395
							c0.155,0.119,0.362,0.169,0.575,0.12c4.382-1.001,8.76-1.929,13.132-2.785c0.082-0.478,0.151-0.951,0.229-1.428
							C220.369,84.19,215.83,85.145,211.288,86.178z"/>
						<path style="fill:#1F234A;" d="M216.323,90.057c-0.379,0.083-0.629,0.451-0.556,0.821c0.032,0.163,0.121,0.299,0.243,0.393
							c0.155,0.119,0.361,0.17,0.573,0.123c2.379-0.527,4.757-1.032,7.133-1.516c0.094-0.48,0.195-0.962,0.286-1.44
							C221.444,88.952,218.885,89.492,216.323,90.057z"/>
						<path style="fill:#1F234A;" d="M146.294,231.862c-0.315,0.206-0.405,0.635-0.2,0.957c0.091,0.142,0.224,0.24,0.371,0.286
							c0.187,0.059,0.395,0.037,0.57-0.078c6.666-4.376,13.404-8.504,20.201-12.386c0.576-0.836,1.148-1.683,1.721-2.531
							C161.325,222.385,153.764,226.969,146.294,231.862z"/>
						<path style="fill:#1F234A;" d="M199.783,78.505c-0.002,0.217,0.095,0.403,0.25,0.522c0.122,0.094,0.28,0.144,0.454,0.133
							c0.393-0.026,0.712-0.362,0.717-0.75c0.062-5.659,0.247-11.356,0.556-17.086c-0.487,0.17-0.974,0.34-1.463,0.518
							C200.008,67.429,199.838,72.985,199.783,78.505z"/>
						<path style="fill:#1F234A;" d="M135.519,230.871c0.186,0.059,0.395,0.034,0.572-0.086
							c13.076-8.865,26.446-16.781,39.996-23.756c0.452-0.735,0.908-1.464,1.357-2.207c-14.266,7.221-28.34,15.477-42.091,24.779
							c-0.316,0.214-0.409,0.653-0.204,0.981C135.239,230.726,135.371,230.825,135.519,230.871z"/>
						<path style="fill:#1F234A;" d="M183.459,124.837c0.049,0.161,0.152,0.288,0.283,0.369c0.166,0.103,0.377,0.132,0.581,0.063
							c10.968-3.723,21.96-6.95,32.938-9.69c0.15-0.499,0.294-0.997,0.441-1.494c-11.256,2.776-22.53,6.062-33.778,9.868
							C183.557,124.077,183.348,124.473,183.459,124.837z"/>
						<path style="fill:#1F234A;" d="M152.42,183.132c0.073,0.153,0.194,0.264,0.336,0.326c0.179,0.078,0.391,0.077,0.581-0.021
							c15.114-7.82,30.441-14.543,45.845-20.19c0.257-0.567,0.509-1.134,0.763-1.701c-15.86,5.737-31.644,12.609-47.205,20.64
							C152.397,182.363,152.254,182.787,152.42,183.132z"/>
						<path style="fill:#1F234A;" d="M172.622,142.773c0.057,0.159,0.166,0.281,0.301,0.356c0.171,0.095,0.382,0.115,0.583,0.036
							c12.968-5.094,26.004-9.462,39.039-13.122c0.18-0.514,0.353-1.026,0.53-1.539c-13.365,3.706-26.734,8.154-40.033,13.363
							C172.682,142.008,172.493,142.414,172.622,142.773z"/>
						<path style="fill:#1F234A;" d="M146.54,197.384c0.079,0.15,0.203,0.258,0.347,0.315c0.182,0.072,0.393,0.064,0.579-0.041
							c15.091-8.506,30.442-15.872,45.908-22.117c0.292-0.594,0.58-1.193,0.87-1.791c-15.977,6.362-31.836,13.914-47.42,22.677
							C146.49,196.615,146.363,197.044,146.54,197.384z"/>
						<path style="fill:#1F234A;" d="M113.532,232.872c0.148,0.044,0.312,0.033,0.465-0.043c0.347-0.171,0.507-0.609,0.359-0.978
							c-5.113-12.766-9.695-25.941-13.698-39.485c-0.158,1.169-0.311,2.338-0.44,3.498c3.811,12.533,8.118,24.746,12.881,36.606
							C113.183,232.676,113.344,232.817,113.532,232.872z"/>
						<path style="fill:#1F234A;" d="M130.67,147.514c0.041,0.22,0.173,0.388,0.349,0.475c0.138,0.069,0.303,0.085,0.471,0.036
							c0.379-0.112,0.626-0.521,0.553-0.915c-1.569-8.468-2.898-17.057-3.977-25.757c-0.41,0.614-0.816,1.233-1.22,1.854
							C127.901,131.412,129.179,139.518,130.67,147.514z"/>
						<path style="fill:#1F234A;" d="M109.277,196.509c0.363-0.153,0.559-0.591,0.441-0.977c-2.053-6.731-3.959-13.556-5.714-20.47
							c-0.252,0.998-0.479,1.989-0.71,2.984c1.588,6.085,3.294,12.1,5.112,18.042c0.066,0.216,0.216,0.37,0.4,0.438
							C108.951,196.578,109.117,196.577,109.277,196.509z"/>
						<path style="fill:#1F234A;" d="M186.15,92.873c0.007,0.217,0.113,0.4,0.272,0.512c0.127,0.089,0.286,0.133,0.459,0.114
							c0.391-0.043,0.695-0.393,0.682-0.782c-0.275-8.366-0.291-16.822-0.036-25.357c-0.487,0.244-0.973,0.496-1.46,0.748
							C185.842,76.442,185.872,84.701,186.15,92.873z"/>
						<path style="fill:#1F234A;" d="M129.751,199.493c0.36-0.14,0.555-0.557,0.436-0.932
							c-5.774-18.254-10.434-37.251-13.844-56.867c-0.359,0.73-0.727,1.462-1.075,2.194c3.408,19.018,7.987,37.448,13.615,55.179
							c0.066,0.21,0.217,0.361,0.4,0.431C129.427,199.553,129.591,199.555,129.751,199.493z"/>
						<path style="fill:#1F234A;" d="M134.298,186.547c0.143,0.059,0.307,0.066,0.469,0.009c0.365-0.129,0.573-0.54,0.466-0.917
							c-5.159-18.231-9.197-37.163-11.984-56.673c-0.398,0.666-0.778,1.335-1.166,2.003c2.803,18.968,6.786,37.384,11.828,55.136
							C133.971,186.317,134.117,186.472,134.298,186.547z"/>
						<path style="fill:#1F234A;" d="M154.499,144.822c-2.806-15.899-4.73-32.24-5.694-48.94c-0.456,0.461-0.911,0.927-1.364,1.395
							c1.005,16.332,2.926,32.318,5.689,47.881c0.038,0.215,0.167,0.383,0.341,0.474c0.137,0.072,0.3,0.095,0.468,0.054
							C154.317,145.594,154.567,145.207,154.499,144.822z"/>
						<path style="fill:#1F234A;" d="M159.852,135.173c-2.245-14.891-3.709-30.15-4.329-45.71c-0.466,0.42-0.929,0.847-1.392,1.274
							c0.662,15.224,2.129,30.159,4.343,44.74c0.032,0.216,0.158,0.387,0.329,0.482c0.135,0.075,0.298,0.102,0.467,0.065
							C159.65,135.94,159.91,135.559,159.852,135.173z"/>
						<path style="fill:#1F234A;" d="M171.28,110.75c0.019,0.217,0.133,0.395,0.298,0.5c0.13,0.083,0.292,0.119,0.463,0.091
							c0.387-0.063,0.673-0.428,0.64-0.817c-0.928-10.997-1.42-22.169-1.452-33.488c-0.48,0.331-0.959,0.653-1.438,0.991
							C169.858,89.084,170.361,100.001,171.28,110.75z"/>
					</g>
				</g>
				<g>
					<path style="fill:#1F234A;" d="M155.992,286.777c0,0,1.305-1.197,2.59-3.259c2.207-3.543-0.415-8.135-4.589-8.135H83.366
						c-4.174,0-6.796,4.593-4.589,8.135c1.285,2.062,2.59,3.259,2.59,3.259l-14.285,53.818c-2.432,9.162,4.476,18.142,13.955,18.142
						h75.284c9.48,0,16.387-8.98,13.955-18.142L155.992,286.777z"/>
					
						<line style="fill:none;stroke:#F5A773;stroke-width:1.0309;strokeLinecap:round;strokeLinejoin:round;stroke-miterlimit:10;" x1="86.804" y1="286.82" x2="150.554" y2="286.82"/>
					<g>
						<path style="fill:#FFF0DD;" d="M134.382,297.529l-0.676,0.268c-1.144,0.454-2.499,0.454-3.697,0l-0.708-0.268
							c-1.19-0.451-2.538-0.451-3.693,0l-0.687,0.268c-1.162,0.454-2.517,0.454-3.697,0l-0.697-0.268
							c-1.172-0.451-2.521-0.451-3.693,0l-0.697,0.268c-1.18,0.454-2.535,0.454-3.697,0l-0.687-0.268
							c-1.155-0.451-2.503-0.451-3.693,0l-0.708,0.268c-1.198,0.454-2.553,0.454-3.697,0l-0.676-0.268
							c-1.137-0.451-2.485-0.451-3.693,0h0c-1.606,0.6-2.728,1.907-2.872,3.362l-3.581,36.379c-0.196,1.989,0.809,3.823,2.586,4.681
							l0,0c1.351,0.652,2.975,0.652,4.429,0l0.859-0.385c1.443-0.647,3.057-0.647,4.423,0l0.813,0.385
							c1.377,0.652,3.001,0.652,4.429,0l0.843-0.385c1.417-0.647,3.031-0.647,4.423,0l0.828,0.385c1.403,0.652,3.027,0.652,4.429,0
							l0.828-0.385c1.392-0.647,3.006-0.647,4.423,0l0.843,0.385c1.428,0.652,3.052,0.652,4.429,0l0.813-0.385
							c1.366-0.647,2.98-0.647,4.423,0l0.859,0.385c1.454,0.652,3.078,0.652,4.429,0l0,0c1.778-0.858,2.782-2.692,2.586-4.681
							l-3.581-36.379c-0.143-1.455-1.266-2.762-2.872-3.362l0,0C136.867,297.078,135.519,297.078,134.382,297.529z"/>
						<g>
							
								<line style="fill:none;stroke:#F5A773;stroke-width:1.0309;strokeLinecap:round;strokeLinejoin:round;stroke-miterlimit:10;" x1="98.666" y1="303.132" x2="138.693" y2="303.132"/>
							
								<line style="fill:none;stroke:#F5A773;stroke-width:1.0309;strokeLinecap:round;strokeLinejoin:round;stroke-miterlimit:10;" x1="95.533" y1="334.913" x2="141.826" y2="334.913"/>
						</g>
					</g>
					<text transform="matrix(1 0 0 1 102.0854 323.181)" style="fill:#F5A773; font-family:'Alice-Regular'; font-size:14.5754px;">TINT</text>
				</g>
			</g>
			<g>
				<g>
					<g>
						<path style="fill:#516B43;" d="M348.492,210.504c0,0-2.268,9.097-1.376,16.059c0.329,2.57,1.113,4.595,1.965,6.123
							c1.505,2.697,2.122,5.819,1.599,8.863c-0.705,4.1-0.737,10.086,2.907,15.803c1.265,1.985,1.872,4.293,2.049,6.639
							c0.471,6.253,4.918,10.078,9.694,12.031c2.178,0.891,4.16,2.276,5.423,4.261c4.2,6.597,16.417,4.706,18.605,7.701
							c2.844-7.741,11.577-10.684,10.445-19.287c-0.295-2.243-0.031-4.523,0.958-6.558c3.463-7.127,1.276-14.964-3.629-18.943
							c-1.949-1.581-3.241-3.84-3.823-6.281c-1.722-7.232-6.066-11.934-13.183-14.246c-2.38-0.773-4.489-2.196-6.044-4.157
							c-4.85-6.115-10.042-8.437-15.176-7.834C352.959,211.377,348.492,210.504,348.492,210.504z"/>
						<path style="fill:none;stroke:#1F234A;stroke-width:2;strokeLinecap:round;strokeLinejoin:round;stroke-miterlimit:10;" d="
							M352.22,214.049c25.043,25.034,39.128,64.288,37.868,86.439"/>
					</g>
					
						<line style="fill:none;stroke:#F7C8C8;strokeLinecap:round;strokeLinejoin:round;stroke-miterlimit:10;" x1="391.939" y1="275.93" x2="396.637" y2="268.65"/>
					
						<line style="fill:none;stroke:#F7C8C8;strokeLinecap:round;strokeLinejoin:round;stroke-miterlimit:10;" x1="388.016" y1="265.546" x2="397.205" y2="251.309"/>
					
						<line style="fill:none;stroke:#F7C8C8;strokeLinecap:round;strokeLinejoin:round;stroke-miterlimit:10;" x1="384.094" y1="255.161" x2="392.07" y2="242.804"/>
					
						<line style="fill:none;stroke:#F7C8C8;strokeLinecap:round;strokeLinejoin:round;stroke-miterlimit:10;" x1="380.172" y1="244.777" x2="388.183" y2="232.365"/>
					
						<line style="fill:none;stroke:#F7C8C8;strokeLinecap:round;strokeLinejoin:round;stroke-miterlimit:10;" x1="375.258" y1="235.929" x2="381.265" y2="226.622"/>
					
						<line style="fill:none;stroke:#F7C8C8;strokeLinecap:round;strokeLinejoin:round;stroke-miterlimit:10;" x1="370.037" y1="227.558" x2="374.014" y2="221.395"/>
					
						<line style="fill:none;stroke:#F7C8C8;strokeLinecap:round;strokeLinejoin:round;stroke-miterlimit:10;" x1="364.109" y1="220.281" x2="367.212" y2="215.473"/>
					
						<line style="fill:none;stroke:#F7C8C8;strokeLinecap:round;strokeLinejoin:round;stroke-miterlimit:10;" x1="383.18" y1="278.788" x2="370.283" y2="275.786"/>
					
						<line style="fill:none;stroke:#F7C8C8;strokeLinecap:round;strokeLinejoin:round;stroke-miterlimit:10;" x1="380.105" y1="269.17" x2="359.914" y2="264.47"/>
					
						<line style="fill:none;stroke:#F7C8C8;strokeLinecap:round;strokeLinejoin:round;stroke-miterlimit:10;" x1="376.736" y1="260.125" x2="355.877" y2="255.27"/>
					
						<line style="fill:none;stroke:#F7C8C8;strokeLinecap:round;strokeLinejoin:round;stroke-miterlimit:10;" x1="373.368" y1="251.081" x2="353.991" y2="246.57"/>
					
						<line style="fill:none;stroke:#F7C8C8;strokeLinecap:round;strokeLinejoin:round;stroke-miterlimit:10;" x1="368.974" y1="241.798" x2="354.06" y2="238.326"/>
					
						<line style="fill:none;stroke:#F7C8C8;strokeLinecap:round;strokeLinejoin:round;stroke-miterlimit:10;" x1="361.684" y1="231.84" x2="350.849" y2="229.318"/>
					
						<line style="fill:none;stroke:#F7C8C8;strokeLinecap:round;strokeLinejoin:round;stroke-miterlimit:10;" x1="355.678" y1="222.182" x2="349.148" y2="220.662"/>
				</g>
				<g>
					<g>
						<path style="fill:#516B43;" d="M451.2,324.304c0,0-4.266,1.745-7.371,6.135c-2.44,3.449-5.047,7.579-11.413,8.629
							c-4.038,0.666-7.556,3.111-9.897,6.468c-4.306,6.176-9.288,9.459-17.038,9.137c-4.184-0.174-8.208,1.407-11.37,4.152
							c-7.566,6.565-16.143,6.562-22.923,4.032c-8.231-3.072-12.272-5.289-16.511-4.575c5.154-9.71,5.185-19.42,14.114-24.68
							c2.923-1.722,5.326-4.148,7.02-7.088c2.903-5.039,7.653-7.208,11.81-7.359c2.303-0.083,4.571-0.718,6.409-2.108
							c5.859-4.428,11.948-4.355,17.885-2.383c3.127,1.039,6.487,1.092,9.61,0.04c8.497-2.864,15.027,1.204,18.62,3.362
							C445.583,321.331,451.2,324.304,451.2,324.304z"/>
						<path style="fill:none;stroke:#1F234A;stroke-width:2;strokeLinecap:round;strokeLinejoin:round;stroke-miterlimit:10;" d="
							M443.817,323.614c-21.644,0.139-71.846,11.274-98.767,44.922"/>
					</g>
					
						<line style="fill:none;stroke:#F7C8C8;strokeLinecap:round;strokeLinejoin:round;stroke-miterlimit:10;" x1="371.62" y1="351.488" x2="384.864" y2="357.71"/>
					
						<line style="fill:none;stroke:#F7C8C8;strokeLinecap:round;strokeLinejoin:round;stroke-miterlimit:10;" x1="380.935" y1="345.806" x2="396.219" y2="352.986"/>
					
						<line style="fill:none;stroke:#F7C8C8;strokeLinecap:round;strokeLinejoin:round;stroke-miterlimit:10;" x1="391.578" y1="340.747" x2="408.199" y2="348.556"/>
					
						<line style="fill:none;stroke:#F7C8C8;strokeLinecap:round;strokeLinejoin:round;stroke-miterlimit:10;" x1="403.088" y1="336.096" x2="417.514" y2="342.873"/>
					
						<line style="fill:none;stroke:#F7C8C8;strokeLinecap:round;strokeLinejoin:round;stroke-miterlimit:10;" x1="414.685" y1="331.486" x2="426.829" y2="337.191"/>
					
						<line style="fill:none;stroke:#F7C8C8;strokeLinecap:round;strokeLinejoin:round;stroke-miterlimit:10;" x1="429.18" y1="328.237" x2="436.143" y2="331.508"/>
					
						<line style="fill:none;stroke:#F7C8C8;strokeLinecap:round;strokeLinejoin:round;stroke-miterlimit:10;" x1="368.104" y1="343.497" x2="369.228" y2="337.249"/>
					
						<line style="fill:none;stroke:#F7C8C8;strokeLinecap:round;strokeLinejoin:round;stroke-miterlimit:10;" x1="376.707" y1="338.072" x2="378.739" y2="326.779"/>
					
						<line style="fill:none;stroke:#F7C8C8;strokeLinecap:round;strokeLinejoin:round;stroke-miterlimit:10;" x1="386.983" y1="332.357" x2="388.761" y2="322.474"/>
					
						<line style="fill:none;stroke:#F7C8C8;strokeLinecap:round;strokeLinejoin:round;stroke-miterlimit:10;" x1="398.157" y1="328.938" x2="400.321" y2="316.91"/>
					
						<line style="fill:none;stroke:#F7C8C8;strokeLinecap:round;strokeLinejoin:round;stroke-miterlimit:10;" x1="409.764" y1="325.311" x2="411.181" y2="317.435"/>
					
						<line style="fill:none;stroke:#F7C8C8;strokeLinecap:round;strokeLinejoin:round;stroke-miterlimit:10;" x1="424.352" y1="321.831" x2="425.315" y2="316.477"/>
				</g>
				<path style="fill:none;stroke:#1F234A;stroke-width:2;strokeLinecap:round;strokeLinejoin:round;stroke-miterlimit:10;" d="
					M416.933,217.537c0,0-4.067,93.552-70.641,117.377"/>
				<g>
					<path style="fill:#516B43;" d="M400.617,295.862c1.066-2.608-0.928-9.172,1.096-13.088c0.893-1.728,2.353-2.883,3.706-3.634
						c1.889-1.049,3.377-2.679,4.409-4.577c1.387-2.55,4.391-5.684,10.812-5.972c2.229-0.1,4.395-0.862,6.201-2.172
						c4.746-3.442,8.728-4.412,13.033-4.026c2.794,0.251,5.499-0.891,7.534-2.822c6.384-6.058,13.912-1.974,19.235-6.659
						c1.568,8.213,0.448,13.859-2.234,17.321c-1.185,1.53-1.913,3.385-1.992,5.319c-0.245,5.987-2.99,9.479-7.781,11.312
						c-1.833,0.701-3.416,1.909-4.575,3.493c-3.609,4.932-8.384,6.702-13.361,7.146c-1.913,0.17-3.702,0.924-5.233,2.082
						C424.883,304.562,413.238,305.384,400.617,295.862z"/>
					<path style="fill:none;stroke:#1F234A;stroke-width:2;strokeLinecap:round;strokeLinejoin:round;stroke-miterlimit:10;" d="
						M463.783,258.646c-13.983,24.191-49.179,42.79-69.853,35.898"/>
					<g>
						
							<line style="fill:none;stroke:#F7C8C8;strokeLinecap:round;strokeLinejoin:round;stroke-miterlimit:10;" x1="411.836" y1="290.545" x2="412.846" y2="278.493"/>
						
							<line style="fill:none;stroke:#F7C8C8;strokeLinecap:round;strokeLinejoin:round;stroke-miterlimit:10;" x1="421.843" y1="286.907" x2="422.852" y2="274.856"/>
						
							<line style="fill:none;stroke:#F7C8C8;strokeLinecap:round;strokeLinejoin:round;stroke-miterlimit:10;" x1="431.951" y1="282.069" x2="432.859" y2="271.218"/>
						
							<line style="fill:none;stroke:#F7C8C8;strokeLinecap:round;strokeLinejoin:round;stroke-miterlimit:10;" x1="442.16" y1="276.009" x2="442.866" y2="267.58"/>
						
							<line style="fill:none;stroke:#F7C8C8;strokeLinecap:round;strokeLinejoin:round;stroke-miterlimit:10;" x1="452.593" y1="267.287" x2="453.046" y2="261.87"/>
					</g>
					
						<line style="fill:none;stroke:#F7C8C8;strokeLinecap:round;strokeLinejoin:round;stroke-miterlimit:10;" x1="415.175" y1="298.421" x2="419.345" y2="301.71"/>
					
						<line style="fill:none;stroke:#F7C8C8;strokeLinecap:round;strokeLinejoin:round;stroke-miterlimit:10;" x1="424.297" y1="296.245" x2="428.644" y2="299.674"/>
					
						<line style="fill:none;stroke:#F7C8C8;strokeLinecap:round;strokeLinejoin:round;stroke-miterlimit:10;" x1="433.546" y1="291.963" x2="438.088" y2="295.545"/>
					
						<line style="fill:none;stroke:#F7C8C8;strokeLinecap:round;strokeLinejoin:round;stroke-miterlimit:10;" x1="443.715" y1="286.558" x2="447.259" y2="289.353"/>
					
						<line style="fill:none;stroke:#F7C8C8;strokeLinecap:round;strokeLinejoin:round;stroke-miterlimit:10;" x1="453.772" y1="279.794" x2="457.102" y2="282.421"/>
				</g>
				<g>
					<g>
						<path style="fill:#E8445C;" d="M387.575,359.255c0.966-2.286,2.983-3.96,5.407-4.488l0.49-0.107
							c4.002-0.872,6.927-4.38,6.998-8.548c0.071-4.131-2.831-7.686-6.774-8.756c4.072-0.325,7.58-3.285,8.271-7.359
							c0.698-4.11-1.531-8.097-5.304-9.691l-0.462-0.195c-2.286-0.966-3.96-2.983-4.488-5.407l-0.107-0.49
							c-0.872-4.002-4.38-6.927-8.548-6.998c-4.131-0.071-7.686,2.831-8.756,6.774c-0.325-4.072-3.285-7.58-7.359-8.271
							c-4.11-0.698-8.097,1.531-9.691,5.304l-0.195,0.462c-0.966,2.286-2.983,3.96-5.407,4.488l-0.49,0.107
							c-4.002,0.872-6.927,4.38-6.998,8.548c-0.071,4.131,2.831,7.686,6.774,8.756c-4.073,0.325-7.579,3.285-8.271,7.359
							c-0.698,4.11,1.531,8.097,5.304,9.691l0.462,0.195c2.286,0.966,3.96,2.983,4.488,5.407l0.107,0.49
							c0.872,4.002,4.38,6.927,8.548,6.998c4.131,0.071,7.686-2.831,8.756-6.774c0.325,4.073,3.285,7.58,7.359,8.271
							c4.11,0.698,8.097-1.531,9.691-5.304L387.575,359.255z"/>
						<g>
							
								<line style="fill:none;stroke:#1F234A;strokeLinecap:round;strokeLinejoin:round;stroke-miterlimit:10;" x1="372.979" y1="328.237" x2="370.493" y2="355.002"/>
							
								<line style="fill:none;stroke:#1F234A;strokeLinecap:round;strokeLinejoin:round;stroke-miterlimit:10;" x1="377.312" y1="336.413" x2="352.685" y2="333.547"/>
						</g>
						<g>
							<g>
								<g>
									
										<line style="fill:none;stroke:#F78585;stroke-width:1.0151;strokeLinecap:round;strokeLinejoin:round;stroke-miterlimit:10;" x1="372.317" y1="335.37" x2="391.119" y2="319.765"/>
									
										<line style="fill:none;stroke:#F78585;stroke-width:1.0151;strokeLinecap:round;strokeLinejoin:round;stroke-miterlimit:10;" x1="372.317" y1="335.37" x2="384.908" y2="314.398"/>
									
										<line style="fill:none;stroke:#F78585;stroke-width:1.0151;strokeLinecap:round;strokeLinejoin:round;stroke-miterlimit:10;" x1="372.317" y1="335.37" x2="395.25" y2="326.858"/>
								</g>
								<g>
									
										<line style="fill:none;stroke:#F78585;stroke-width:1.0151;strokeLinecap:round;strokeLinejoin:round;stroke-miterlimit:10;" x1="372.317" y1="335.37" x2="353.515" y2="350.976"/>
									
										<line style="fill:none;stroke:#F78585;stroke-width:1.0151;strokeLinecap:round;strokeLinejoin:round;stroke-miterlimit:10;" x1="372.317" y1="335.37" x2="359.726" y2="356.343"/>
									
										<line style="fill:none;stroke:#F78585;stroke-width:1.0151;strokeLinecap:round;strokeLinejoin:round;stroke-miterlimit:10;" x1="372.317" y1="335.371" x2="349.383" y2="343.883"/>
								</g>
							</g>
							<g>
								<g>
									
										<line style="fill:none;stroke:#F78585;stroke-width:1.0151;strokeLinecap:round;strokeLinejoin:round;stroke-miterlimit:10;" x1="372.317" y1="335.37" x2="356.711" y2="316.568"/>
									
										<line style="fill:none;stroke:#F78585;stroke-width:1.0151;strokeLinecap:round;strokeLinejoin:round;stroke-miterlimit:10;" x1="372.317" y1="335.37" x2="351.344" y2="322.78"/>
									
										<line style="fill:none;stroke:#F78585;stroke-width:1.0151;strokeLinecap:round;strokeLinejoin:round;stroke-miterlimit:10;" x1="372.317" y1="335.37" x2="363.805" y2="312.437"/>
								</g>
								<g>
									
										<line style="fill:none;stroke:#F78585;stroke-width:1.0151;strokeLinecap:round;strokeLinejoin:round;stroke-miterlimit:10;" x1="372.317" y1="335.371" x2="387.922" y2="354.173"/>
									
										<line style="fill:none;stroke:#F78585;stroke-width:1.0151;strokeLinecap:round;strokeLinejoin:round;stroke-miterlimit:10;" x1="372.317" y1="335.371" x2="393.29" y2="347.961"/>
									
										<line style="fill:none;stroke:#F78585;stroke-width:1.0151;strokeLinecap:round;strokeLinejoin:round;stroke-miterlimit:10;" x1="372.317" y1="335.37" x2="380.829" y2="358.304"/>
								</g>
							</g>
						</g>
					</g>
					<g>
						<path style="fill:#1F234A;" d="M388.749,329.778c1.262-2.14,0.979-5.134-0.896-7.394s-4.767-3.089-7.102-2.243
							c-1.912-3.472-5.88-4.717-9.105-2.04l-6.19,10.384l4.758,8.539l7.516,6.25l11.347-4.171
							C392.302,336.426,391.809,332.297,388.749,329.778z"/>
						
							<ellipse transform="matrix(0.7695 -0.6387 0.6387 0.7695 -126.722 316.0055)" style="fill:#E8445C;" cx="374.4" cy="333.55" rx="8.012" ry="10.945"/>
						<path style="fill:#F78585;" d="M378.121,339.179c0,0-0.562-3.467-2.914-6.3s-5.655-4.024-5.655-4.024
							c3.889-6.034,2.092-10.753,2.092-10.753c-5.531,4.591-14.062,14.554-6.763,23.348c7.299,8.794,18.663,2.244,24.194-2.346
							C389.076,339.103,384.769,336.469,378.121,339.179z"/>
					</g>
				</g>
			</g>
			<g>
				<g>
					<g>
						<path style="fill:#93C9B1;" d="M292.24,337.716c3.356,11.583,12.579,21.022,27.263,21.022H173.471
							c-18.009,0-27.8-14.206-28.632-29.154c-0.832-14.947,6.252-28.159,22.808-28.159h60.96h85.072
							c-11.301,0-18.184,6.143-21.153,14.801h-0.01c-1.384,4.037-1.919,8.61-1.655,13.358
							C291.015,332.343,291.479,335.083,292.24,337.716z"/>
					</g>
					<g>
						<path style="fill:#1F234A;" d="M320.029,337.716H292.24c-0.761-2.633-1.225-5.372-1.379-8.132
							c-0.264-4.748,0.271-9.321,1.655-13.358h0.01h15.698C303.936,328.17,310.95,337.511,320.029,337.716z"/>
					</g>
					<g>
						<path style="fill:#5A9A9C;" d="M313.679,301.425c23.313,0,25.533,31.114,10.926,35.647c-1.256,0.39-2.512,0.595-3.728,0.644
							h-0.848c-9.079-0.205-16.093-9.546-11.805-21.49h-15.698C295.495,307.567,302.378,301.425,313.679,301.425z"/>
					</g>
					<g>
						<path style="fill:#93C9B1;" d="M471.805,148.119c0.832,14.938-6.252,28.159-22.818,28.159
							c-10.95,0-17.251-6.874-19.331-14.635l24.795-0.176c4.33-12.071-2.893-21.49-12.108-21.5h-0.01h-24.805
							c6.254-11.486,14.673-20.164,25.644-21.002C461.056,117.59,470.972,133.172,471.805,148.119z"/>
					</g>
					<g>
						<path style="fill:#1F234A;" d="M442.343,139.968c9.215,0.01,16.438,9.429,12.108,21.5l-24.795,0.176
							c-2.349-8.746,0.67-18.614,8.415-21.012c1.447-0.449,2.869-0.663,4.263-0.663H442.343z"/>
					</g>
					<g>
						<path style="fill:#5A9A9C;" d="M429.656,161.643c2.08,7.761,8.381,14.635,19.331,14.635h-43.955
							c0.084-0.41,0.179-0.819,0.263-1.229c2.453-11.457,6.418-24.464,12.233-35.082h24.805c-1.394,0-2.816,0.215-4.263,0.663
							C430.326,143.029,427.307,152.897,429.656,161.643z"/>
					</g>
					<g>
						<path style="fill:#FFF0DD;" d="M320.877,337.716c1.216-0.049,2.472-0.254,3.728-0.644
							c14.607-4.534,12.387-35.647-10.926-35.647h-85.072c12.753-35.033,21.071-81.582,30.657-126.375
							c4.953-23.118,16.074-52.613,35.988-55.86c1.005-0.166,2.035-0.224,3.069-0.224h144.852
							c-10.971,0.839-19.39,9.516-25.644,21.002c-5.815,10.618-9.78,23.625-12.233,35.082c-0.084,0.41-0.179,0.819-0.263,1.229
							c-18.808,88.085-32.887,182.459-85.529,182.459c-14.684,0-23.907-9.438-27.263-21.022h27.789
							C320.303,337.735,320.586,337.735,320.877,337.716z"/>
					</g>
				</g>
				<g>
					
						<line style="fill:none;stroke:#C3E3D5;stroke-width:1.9501;strokeLinecap:round;strokeLinejoin:round;stroke-miterlimit:10;" x1="306.369" y1="139.968" x2="371.087" y2="139.968"/>
					
						<line style="fill:none;stroke:#C3E3D5;stroke-width:1.9501;strokeLinecap:round;strokeLinejoin:round;stroke-miterlimit:10;" x1="290.287" y1="154.867" x2="379.869" y2="154.867"/>
					
						<line style="fill:none;stroke:#C3E3D5;stroke-width:1.9501;strokeLinecap:round;strokeLinejoin:round;stroke-miterlimit:10;" x1="272.56" y1="169.767" x2="390.296" y2="169.767"/>
					
						<line style="fill:none;stroke:#C3E3D5;stroke-width:1.9501;strokeLinecap:round;strokeLinejoin:round;stroke-miterlimit:10;" x1="268.91" y1="184.667" x2="386.646" y2="184.667"/>
					
						<line style="fill:none;stroke:#C3E3D5;stroke-width:1.9501;strokeLinecap:round;strokeLinejoin:round;stroke-miterlimit:10;" x1="265.259" y1="199.567" x2="382.995" y2="199.567"/>
					
						<line style="fill:none;stroke:#C3E3D5;stroke-width:1.9501;strokeLinecap:round;strokeLinejoin:round;stroke-miterlimit:10;" x1="261.609" y1="214.467" x2="379.345" y2="214.467"/>
					
						<line style="fill:none;stroke:#C3E3D5;stroke-width:1.9501;strokeLinecap:round;strokeLinejoin:round;stroke-miterlimit:10;" x1="257.959" y1="229.367" x2="375.695" y2="229.367"/>
					
						<line style="fill:none;stroke:#C3E3D5;stroke-width:1.9501;strokeLinecap:round;strokeLinejoin:round;stroke-miterlimit:10;" x1="254.309" y1="244.266" x2="372.045" y2="244.266"/>
					
						<line style="fill:none;stroke:#C3E3D5;stroke-width:1.9501;strokeLinecap:round;strokeLinejoin:round;stroke-miterlimit:10;" x1="257.423" y1="259.166" x2="361.63" y2="259.166"/>
					
						<line style="fill:none;stroke:#C3E3D5;stroke-width:1.9501;strokeLinecap:round;strokeLinejoin:round;stroke-miterlimit:10;" x1="261.726" y1="274.066" x2="350.028" y2="274.066"/>
					
						<line style="fill:none;stroke:#C3E3D5;stroke-width:1.9501;strokeLinecap:round;strokeLinejoin:round;stroke-miterlimit:10;" x1="280.471" y1="288.966" x2="323.982" y2="288.966"/>
				</g>
			</g>
			<g>
				<path style="fill:#FFFFFF;" d="M82.47,43.709l0.883,5.36c0.318,1.928,1.829,3.44,3.757,3.757l5.36,0.883l-5.36,0.883
					c-1.928,0.318-3.44,1.829-3.757,3.757l-0.883,5.36l-0.883-5.36c-0.318-1.928-1.829-3.44-3.757-3.757l-5.36-0.883l5.36-0.883
					c1.928-0.318,3.44-1.829,3.757-3.757L82.47,43.709z"/>
				<path style="fill:#FFFFFF;" d="M25.229,302.437l0.883,5.36c0.318,1.928,1.829,3.44,3.757,3.757l5.36,0.883l-5.36,0.883
					c-1.928,0.318-3.44,1.829-3.757,3.757l-0.883,5.36l-0.883-5.36c-0.318-1.928-1.829-3.44-3.757-3.757l-5.36-0.883l5.36-0.883
					c1.928-0.318,3.44-1.829,3.757-3.757L25.229,302.437z"/>
				<path style="fill:#FFFFFF;" d="M463.783,356.238l0.883,5.36c0.318,1.928,1.829,3.44,3.757,3.757l5.36,0.883l-5.36,0.883
					c-1.928,0.318-3.44,1.829-3.757,3.757l-0.883,5.36l-0.883-5.36c-0.318-1.928-1.829-3.44-3.757-3.757l-5.36-0.883l5.36-0.883
					c1.928-0.318,3.44-1.829,3.757-3.757L463.783,356.238z"/>
				<path style="fill:#FFFFFF;" d="M452.593,33.709l0.883,5.36c0.318,1.928,1.829,3.44,3.757,3.757l5.36,0.883l-5.36,0.883
					c-1.928,0.318-3.44,1.829-3.757,3.757l-0.883,5.36l-0.883-5.36c-0.318-1.928-1.829-3.44-3.757-3.757l-5.36-0.883l5.36-0.883
					c1.928-0.318,3.44-1.829,3.757-3.757L452.593,33.709z"/>
				<path style="fill:#FFF0DD;" d="M363.074,84.595l12.621-2.079l-12.621-2.079c-1.939-0.319-2.869-2.564-1.723-4.16l3.429-4.781
					l-4.781,3.429c-1.597,1.145-3.841,0.216-4.16-1.723l-2.079-12.621l-2.079,12.621c-0.319,1.939-2.564,2.869-4.16,1.723
					l-4.781-3.429l3.429,4.781c1.145,1.597,0.216,3.841-1.723,4.16l-12.621,2.079l12.621,2.079c1.939,0.319,2.869,2.564,1.723,4.16
					l-3.429,4.781l4.781-3.429c1.597-1.145,3.841-0.216,4.16,1.723l2.079,12.621l2.079-12.621c0.319-1.939,2.564-2.869,4.16-1.723
					l4.781,3.429l-3.429-4.781C360.206,87.159,361.135,84.915,363.074,84.595z"/>
				<path style="fill:#FFF0DD;" d="M497.812,212.817l12.621-2.079l-12.621-2.079c-1.939-0.319-2.869-2.564-1.723-4.16l3.429-4.781
					l-4.781,3.429c-1.597,1.145-3.841,0.216-4.16-1.723l-2.079-12.621l-2.079,12.621c-0.319,1.939-2.564,2.869-4.16,1.723
					l-4.781-3.429l3.429,4.781c1.145,1.597,0.216,3.841-1.723,4.16l-12.621,2.079l12.621,2.079c1.939,0.319,2.869,2.564,1.723,4.16
					l-3.429,4.781l4.781-3.429c1.597-1.145,3.841-0.216,4.16,1.723l2.079,12.621l2.079-12.621c0.319-1.939,2.564-2.869,4.16-1.723
					l4.781,3.429l-3.429-4.781C494.943,215.38,495.873,213.136,497.812,212.817z"/>
				<path style="fill:#FFF0DD;" d="M29.239,149.658l12.621-2.079L29.239,145.5c-1.939-0.319-2.869-2.564-1.723-4.16l3.429-4.781
					l-4.781,3.429c-1.597,1.145-3.841,0.216-4.16-1.723l-2.079-12.621l-2.079,12.621c-0.319,1.939-2.564,2.869-4.16,1.723
					l-4.781-3.429l3.429,4.781c1.145,1.597,0.216,3.841-1.723,4.16l-12.621,2.079l12.621,2.079c1.939,0.319,2.869,2.564,1.723,4.16
					l-3.429,4.781l4.781-3.429c1.597-1.145,3.841-0.216,4.16,1.723l2.079,12.621l2.079-12.621c0.319-1.939,2.564-2.869,4.16-1.723
					l4.781,3.429l-3.429-4.781C26.371,152.222,27.3,149.978,29.239,149.658z"/>
				<path style="fill:#FFF0DD;" d="M196.879,30.696l12.621-2.079l-12.621-2.079c-1.939-0.319-2.869-2.564-1.723-4.16l3.429-4.781
					l-4.781,3.429c-1.597,1.145-3.841,0.216-4.16-1.723l-2.079-12.621l-2.079,12.621c-0.319,1.939-2.564,2.869-4.16,1.723
					l-4.781-3.429l3.429,4.781c1.145,1.597,0.216,3.841-1.723,4.16l-12.621,2.079l12.621,2.079c1.939,0.319,2.869,2.564,1.723,4.16
					l-3.429,4.781l4.781-3.429c1.597-1.145,3.841-0.216,4.16,1.723l2.079,12.621l2.079-12.621c0.319-1.939,2.564-2.869,4.16-1.723
					l4.781,3.429l-3.429-4.781C194.01,33.259,194.94,31.015,196.879,30.696z"/>
			</g>
			<g>
				<path style="fill:#F58336;" d="M98.666,409.362h299.656c13.98,0,25.312-11.333,25.312-25.312v0
					c0-13.98-11.333-25.312-25.312-25.312H98.666V409.362z"/>
				<g>
					<path style="fill:#E8445C;" d="M195.836,409.362h202.486c4.868,0,9.414-1.377,13.273-3.759H195.836V409.362z"/>
					<path style="fill:#E8445C;" d="M195.836,358.738v3.759h215.759c-3.859-2.382-8.405-3.759-13.273-3.759H195.836z"/>
				</g>
				<path style="fill:#F5A773;" d="M199.117,358.738H56.805v3.759h22.453v43.107H56.805v3.759h142.312
					c13.98,0,25.312-11.333,25.312-25.312v0C224.429,370.07,213.096,358.738,199.117,358.738z"/>
				<path style="fill:#F5A773;" d="M392.08,358.738h-12.008c12.771,1.706,22.642,12.404,22.642,25.313
					c0,12.908-9.87,23.605-22.639,25.312h12.006c8.762-5.181,14.633-14.588,14.633-25.312
					C406.714,373.325,400.842,363.918,392.08,358.738z"/>
				<path style="fill:#F5A773;" d="M238.081,358.738h-12.008c12.771,1.706,22.642,12.404,22.642,25.313
					c0,12.908-9.87,23.605-22.639,25.312h12.006c8.762-5.181,14.633-14.588,14.633-25.312
					C252.715,373.325,246.844,363.918,238.081,358.738z"/>
				<path style="fill:#F5A773;" d="M265.224,397.202l1.843-4.204c1.242-2.834,1.872-5.844,1.872-8.947s-0.63-6.113-1.872-8.947
					l-1.843-4.204h112.639l0.787,1.796c1.577,3.597,2.377,7.418,2.377,11.355s-0.8,7.759-2.377,11.355l-0.787,1.796H265.224z"/>
				<path style="fill:#F58336;" d="M378.027,384.05c0-3.611-0.761-7.043-2.124-10.151H269.815c1.363,3.108,2.124,6.54,2.124,10.151
					v0c0,3.611-0.761,7.043-2.124,10.151h106.088C377.266,391.093,378.027,387.661,378.027,384.05L378.027,384.05z"/>
				<path style="fill:#FFF0D1;" d="M62.76,405.603l-0.495-0.907c-0.3-0.55-0.3-1.238,0-1.788l0.007-0.012
					c0.3-0.55,0.3-1.239-0.001-1.789l-0.005-0.009c-0.301-0.55-0.301-1.24,0-1.79l0.004-0.007c0.301-0.55,0.301-1.24,0-1.79
					l-0.004-0.006c-0.301-0.551-0.301-1.241,0-1.791l0.002-0.004c0.301-0.55,0.301-1.24,0-1.791l-0.004-0.007
					c-0.301-0.55-0.301-1.24,0-1.79l0.004-0.007c0.301-0.55,0.301-1.24,0-1.79l-0.003-0.006c-0.301-0.551-0.301-1.241,0-1.791
					l0.003-0.005c0.301-0.55,0.301-1.24,0-1.791l-0.003-0.005c-0.301-0.551-0.301-1.241,0-1.791l0.002-0.004
					c0.301-0.551,0.301-1.241,0-1.791l-0.002-0.004c-0.301-0.551-0.301-1.241,0-1.792l0.001-0.002c0.302-0.551,0.302-1.241,0-1.792
					l-0.002-0.004c-0.301-0.551-0.301-1.241,0-1.792l0.001-0.001c0.302-0.551,0.302-1.242,0-1.793l0,0
					c-0.302-0.551-0.302-1.242-0.001-1.793l0.002-0.003c0.301-0.551,0.301-1.241,0-1.791l-0.002-0.004
					c-0.301-0.551-0.301-1.241,0-1.792l0.002-0.004c0.301-0.551,0.301-1.241,0-1.791l-0.002-0.004c-0.301-0.551-0.301-1.241,0-1.792
					l0.002-0.003c0.301-0.551,0.301-1.241,0-1.792l-0.002-0.004c-0.301-0.551-0.301-1.241,0-1.792l0.492-0.899h136.207
					c11.904,0,21.553,9.65,21.553,21.553v0c0,11.904-9.65,21.553-21.553,21.553H62.76z"/>
				<g>
					
						<line style="fill:none;stroke:#E8BA5A;stroke-width:1.0309;strokeLinecap:round;strokeLinejoin:round;stroke-miterlimit:10;" x1="65.43" y1="366.238" x2="204.554" y2="366.238"/>
					
						<line style="fill:none;stroke:#E8BA5A;stroke-width:1.0309;strokeLinecap:round;strokeLinejoin:round;stroke-miterlimit:10;" x1="65.43" y1="369.8" x2="208.773" y2="369.8"/>
					
						<line style="fill:none;stroke:#E8BA5A;stroke-width:1.0309;strokeLinecap:round;strokeLinejoin:round;stroke-miterlimit:10;" x1="65.43" y1="373.363" x2="213.742" y2="373.363"/>
					
						<line style="fill:none;stroke:#E8BA5A;stroke-width:1.0309;strokeLinecap:round;strokeLinejoin:round;stroke-miterlimit:10;" x1="65.43" y1="376.925" x2="215.804" y2="376.925"/>
					
						<line style="fill:none;stroke:#E8BA5A;stroke-width:1.0309;strokeLinecap:round;strokeLinejoin:round;stroke-miterlimit:10;" x1="65.43" y1="380.488" x2="216.648" y2="380.488"/>
					
						<line style="fill:none;stroke:#E8BA5A;stroke-width:1.0309;strokeLinecap:round;strokeLinejoin:round;stroke-miterlimit:10;" x1="65.43" y1="384.05" x2="217.351" y2="384.05"/>
					
						<line style="fill:none;stroke:#E8BA5A;stroke-width:1.0309;strokeLinecap:round;strokeLinejoin:round;stroke-miterlimit:10;" x1="65.43" y1="387.613" x2="216.648" y2="387.613"/>
					
						<line style="fill:none;stroke:#E8BA5A;stroke-width:1.0309;strokeLinecap:round;strokeLinejoin:round;stroke-miterlimit:10;" x1="65.43" y1="391.175" x2="215.804" y2="391.175"/>
					
						<line style="fill:none;stroke:#E8BA5A;stroke-width:1.0309;strokeLinecap:round;strokeLinejoin:round;stroke-miterlimit:10;" x1="65.43" y1="394.738" x2="213.742" y2="394.738"/>
					
						<line style="fill:none;stroke:#E8BA5A;stroke-width:1.0309;strokeLinecap:round;strokeLinejoin:round;stroke-miterlimit:10;" x1="65.43" y1="398.3" x2="208.773" y2="398.3"/>
					
						<line style="fill:none;stroke:#E8BA5A;stroke-width:1.0309;strokeLinecap:round;strokeLinejoin:round;stroke-miterlimit:10;" x1="65.43" y1="401.863" x2="204.554" y2="401.863"/>
				</g>
			</g>
			<g>
				<path style="fill:#FFF0D1;" d="M437.054,456.527l0.495-0.907c0.3-0.55,0.3-1.238,0-1.788l-0.007-0.012
					c-0.3-0.55-0.3-1.239,0.001-1.789l0.005-0.009c0.301-0.55,0.301-1.24,0-1.79l-0.004-0.007c-0.301-0.55-0.301-1.24,0-1.79
					l0.004-0.006c0.301-0.551,0.301-1.241,0-1.791l-0.002-0.004c-0.301-0.55-0.301-1.24,0-1.791l0.004-0.007
					c0.301-0.55,0.301-1.24,0-1.79l-0.004-0.007c-0.301-0.55-0.301-1.24,0-1.79l0.003-0.006c0.301-0.551,0.301-1.241,0-1.791
					l-0.003-0.005c-0.301-0.55-0.301-1.24,0-1.791l0.003-0.005c0.301-0.551,0.301-1.241,0-1.791l-0.002-0.004
					c-0.301-0.551-0.301-1.241,0-1.791l0.002-0.004c0.301-0.551,0.301-1.241,0-1.792l-0.001-0.002c-0.302-0.551-0.302-1.241,0-1.792
					l0.002-0.004c0.301-0.551,0.301-1.241,0-1.792l-0.001-0.001c-0.302-0.551-0.302-1.242,0-1.793l0,0
					c0.302-0.551,0.302-1.242,0.001-1.793l-0.002-0.003c-0.301-0.551-0.301-1.241,0-1.791l0.002-0.004
					c0.301-0.551,0.301-1.241,0-1.792l-0.002-0.004c-0.301-0.551-0.301-1.241,0-1.791l0.002-0.004c0.301-0.551,0.301-1.241,0-1.792
					l-0.002-0.003c-0.301-0.551-0.301-1.241,0-1.792l0.002-0.004c0.301-0.551,0.301-1.241,0-1.792l-0.492-0.899h-152.16
					c-11.904,0-21.553,9.65-21.553,21.553v0c0,11.904,9.65,21.553,21.553,21.553H437.054z"/>
				<g>
					
						<line style="fill:none;stroke:#E8BA5A;stroke-width:1.0309;strokeLinecap:round;strokeLinejoin:round;stroke-miterlimit:10;" x1="434.384" y1="417.161" x2="279.306" y2="417.161"/>
					
						<line style="fill:none;stroke:#E8BA5A;stroke-width:1.0309;strokeLinecap:round;strokeLinejoin:round;stroke-miterlimit:10;" x1="434.384" y1="420.724" x2="275.087" y2="420.724"/>
					
						<line style="fill:none;stroke:#E8BA5A;stroke-width:1.0309;strokeLinecap:round;strokeLinejoin:round;stroke-miterlimit:10;" x1="434.384" y1="424.286" x2="270.118" y2="424.286"/>
					
						<line style="fill:none;stroke:#E8BA5A;stroke-width:1.0309;strokeLinecap:round;strokeLinejoin:round;stroke-miterlimit:10;" x1="434.384" y1="427.849" x2="268.056" y2="427.849"/>
					
						<line style="fill:none;stroke:#E8BA5A;stroke-width:1.0309;strokeLinecap:round;strokeLinejoin:round;stroke-miterlimit:10;" x1="434.384" y1="431.411" x2="267.212" y2="431.411"/>
					
						<line style="fill:none;stroke:#E8BA5A;stroke-width:1.0309;strokeLinecap:round;strokeLinejoin:round;stroke-miterlimit:10;" x1="434.384" y1="434.974" x2="266.509" y2="434.974"/>
					
						<line style="fill:none;stroke:#E8BA5A;stroke-width:1.0309;strokeLinecap:round;strokeLinejoin:round;stroke-miterlimit:10;" x1="434.384" y1="438.536" x2="267.212" y2="438.536"/>
					
						<line style="fill:none;stroke:#E8BA5A;stroke-width:1.0309;strokeLinecap:round;strokeLinejoin:round;stroke-miterlimit:10;" x1="434.384" y1="442.099" x2="268.056" y2="442.099"/>
					
						<line style="fill:none;stroke:#E8BA5A;stroke-width:1.0309;strokeLinecap:round;strokeLinejoin:round;stroke-miterlimit:10;" x1="434.384" y1="445.661" x2="270.118" y2="445.661"/>
					
						<line style="fill:none;stroke:#E8BA5A;stroke-width:1.0309;strokeLinecap:round;strokeLinejoin:round;stroke-miterlimit:10;" x1="434.384" y1="449.224" x2="275.087" y2="449.224"/>
					
						<line style="fill:none;stroke:#E8BA5A;stroke-width:1.0309;strokeLinecap:round;strokeLinejoin:round;stroke-miterlimit:10;" x1="434.384" y1="452.786" x2="279.306" y2="452.786"/>
				</g>
			</g>
			
				<line style="fill:none;stroke:#1F234A;stroke-width:1.0151;strokeLinecap:round;strokeLinejoin:round;stroke-miterlimit:10;" x1="25.563" y1="460.585" x2="474.437" y2="460.585"/>
			<g>
				<path style="fill:#FC9774;" d="M194.148,429.085l1.406,11.953c0,0,4.219,11.391,3.937,19.547H140.57l-0.761-5.747
					c-0.296-2.239,0.979-4.39,3.085-5.204l29.878-11.55l-1.125-9H194.148z"/>
				<path style="fill:#E8445C;" d="M140.57,460.585h58.922c0.198-5.752-1.84-13.107-3.06-16.947l-22.44,2.556l-7.29-5.762
					l-23.807,9.203c-2.107,0.814-3.382,2.965-3.085,5.204L140.57,460.585z"/>
				<path style="fill:#FC9774;" d="M369.132,433.304l5.906,11.531l-2.109,15.75h51.891l-1.374-7.947
					c-0.289-1.672-1.384-3.093-2.928-3.798l-23.543-10.755l-4.219-5.625L369.132,433.304z"/>
				<path style="fill:#E8445C;" d="M420.518,448.84l-17.89-8.173l-7.835,6.302l-19.754-2.135l-2.109,15.75h51.891l-1.374-7.947
					C423.157,450.966,422.061,449.545,420.518,448.84z"/>
				<path style="fill:#303669;" d="M296.757,122.992c0,0,2.078,11.216-9.578,18.428l-4.742-22.469L296.757,122.992z"/>
				<polygon style="fill:#FC9774;" points="286.858,135.836 288.132,158.007 265.538,158.007 264.265,143.148 				"/>
				<path style="fill:#303669;" d="M284.556,141.598c0,0-5.754,10.222-19.628,9.285l-0.638-7.443L284.556,141.598z"/>
				<path style="fill:#FC9774;" d="M283.676,118.237l-23.083-5.98l-0.492,14.133c0,0-5.13,16.232,6.961,19.406
					c7.93,2.082,14.638-1.952,17.906-4.514c1.343-1.053,2.157-2.636,2.21-4.342l0.228-7.234
					C284.295,127.577,283.766,120.57,283.676,118.237z"/>
				<path style="fill:#E8445C;" d="M264.812,154.593c3.345,0.399,10.768,0.909,22.987-0.144c1.066-0.092,2.009,0.696,2.109,1.762
					l0.38,4.068l17.262,6.85c7.005,2.78,13.244,7.194,18.198,12.874l35.753,40.997c5.077,5.822,6.207,14.253,2.784,21.324l0,0
					c-4.408,9.105-15.021,13.361-24.498,9.822l-31.921-11.919l-1.125,10.687c0,0-63.328,0-73.64,0
					c-10.312,0-7.734-11.437-0.797-11.062l0.563-7.5l-13.24,10.385c-9.775,7.668-23.888,6.107-31.752-3.511l0,0
					c-7.447-9.107-6.75-22.383,1.609-30.661l31.712-31.405c7.604-7.531,17.3-12.598,27.824-14.542l13.285-2.454l0.249-3.685
					C262.631,155.32,263.659,154.456,264.812,154.593z"/>
				<g>
					
						<line style="fill:none;stroke:#FFF0DD;stroke-width:0.9085;strokeLinecap:round;strokeLinejoin:round;stroke-miterlimit:10;" x1="243.842" y1="223.742" x2="241.537" y2="250.914"/>
					
						<line style="fill:none;stroke:#FFF0DD;stroke-width:0.9085;strokeLinecap:round;strokeLinejoin:round;stroke-miterlimit:10;" x1="248.617" y1="167.476" x2="246.127" y2="196.814"/>
					
						<line style="fill:none;stroke:#FFF0DD;stroke-width:0.9085;strokeLinecap:round;strokeLinejoin:round;stroke-miterlimit:10;" x1="256.462" y1="213.843" x2="253.317" y2="250.914"/>
					
						<line style="fill:none;stroke:#FFF0DD;stroke-width:0.9085;strokeLinecap:round;strokeLinejoin:round;stroke-miterlimit:10;" x1="260.397" y1="167.476" x2="256.726" y2="210.738"/>
					
						<line style="fill:none;stroke:#FFF0DD;stroke-width:0.9085;strokeLinecap:round;strokeLinejoin:round;stroke-miterlimit:10;" x1="272.177" y1="167.476" x2="265.097" y2="250.914"/>
					
						<line style="fill:none;stroke:#FFF0DD;stroke-width:0.9085;strokeLinecap:round;strokeLinejoin:round;stroke-miterlimit:10;" x1="283.957" y1="167.476" x2="276.877" y2="250.914"/>
					
						<line style="fill:none;stroke:#FFF0DD;stroke-width:0.9085;strokeLinecap:round;strokeLinejoin:round;stroke-miterlimit:10;" x1="295.737" y1="167.476" x2="288.657" y2="250.914"/>
				</g>
				<path style="fill:#4B72A6;" d="M232.418,260.101h77.511l7.077,8.05c5.107,5.809,7.923,13.278,7.923,21.012v0l75,146.25h-34.687
					l-98.625-132.562l-65.625,58.875l2.438,73.687h-37.5l-7.098-73.643c-1.206-12.513,3.165-24.921,11.946-33.916l55.714-57.066
					C226.492,263.429,232.418,260.101,232.418,260.101z"/>
				
					<line style="fill:none;stroke:#303669;strokeLinecap:round;strokeLinejoin:round;stroke-miterlimit:10;" x1="164.904" y1="424.779" x2="203.077" y2="424.779"/>
				
					<line style="fill:none;stroke:#303669;strokeLinecap:round;strokeLinejoin:round;stroke-miterlimit:10;" x1="357.33" y1="424.779" x2="394.476" y2="424.779"/>
				
					<line style="fill:none;stroke:#303669;strokeLinecap:round;strokeLinejoin:round;stroke-miterlimit:10;" x1="266.617" y1="302.851" x2="267.695" y2="260.101"/>
				<path style="fill:none;stroke:#303669;strokeLinecap:round;strokeLinejoin:round;stroke-miterlimit:10;" d="M259.82,260.101
					v15.933c0,4.71,2.845,8.954,7.202,10.743l0,0"/>
				
					<line style="fill:none;stroke:#303669;strokeLinecap:round;strokeLinejoin:round;stroke-miterlimit:10;" x1="250.257" y1="292.538" x2="282.742" y2="295.632"/>
				
					<line style="fill:none;stroke:#303669;strokeLinecap:round;strokeLinejoin:round;stroke-miterlimit:10;" x1="251.242" y1="298.163" x2="281.617" y2="298.163"/>
				<polyline style="fill:none;stroke:#303669;strokeLinecap:round;strokeLinejoin:round;stroke-miterlimit:10;" points="
					244.304,260.101 239.992,278.663 183.179,353.288 188.054,424.779 				"/>
				
					<line style="fill:none;stroke:#303669;strokeLinecap:round;strokeLinejoin:round;stroke-miterlimit:10;" x1="191.804" y1="356.945" x2="172.492" y2="349.257"/>
				
					<line style="fill:none;stroke:#303669;strokeLinecap:round;strokeLinejoin:round;stroke-miterlimit:10;" x1="191.804" y1="359.476" x2="171.273" y2="359.476"/>
				
					<line style="fill:none;stroke:#303669;strokeLinecap:round;strokeLinejoin:round;stroke-miterlimit:10;" x1="233.453" y1="276.999" x2="246.953" y2="280.585"/>
				
					<line style="fill:none;stroke:#303669;strokeLinecap:round;strokeLinejoin:round;stroke-miterlimit:10;" x1="286.96" y1="260.101" x2="373.585" y2="424.779"/>
				<rect x="232.418" y="250.891" style="fill:#303669;" width="77.511" height="9.21"/>
				<rect x="254.335" y="250.891" style="fill:#F58336;" width="21.234" height="9.21"/>
				
					<line style="fill:none;stroke:#1F234A;strokeLinecap:round;strokeLinejoin:round;stroke-miterlimit:10;" x1="347.982" y1="225.57" x2="322.341" y2="223.742"/>
				<g>
					<path style="fill:#FC9774;" d="M246.499,197.136l7.963,10.637l12.851-5.318l6.653-4.756c1.32-0.943,1.922-2.602,1.514-4.173
						l-0.026-0.101l1.536-2.012c0.784-1.027,0.937-2.403,0.398-3.577l-0.209-0.456l1.231-1.43c0.655-0.761,0.667-1.883,0.03-2.658
						l0,0c-0.704-0.856-1.958-1.004-2.842-0.335l-0.526,0.399l-0.245-0.269c-0.94-1.034-2.521-1.159-3.612-0.286l-4.767,3.813
						l-6.643,2.108l2.427-4.024l2.153-2.31c0.752-0.807,0.71-2.069-0.095-2.824l0,0c-0.728-0.683-1.847-0.725-2.624-0.099
						l-7.327,5.9c-0.484,0.39-0.901,0.856-1.235,1.381L246.499,197.136z"/>
					<polyline style="fill:none;stroke:#303669;strokeLinecap:round;strokeLinejoin:round;stroke-miterlimit:10;" points="
						274.325,184.166 268.491,189.489 262.273,192.726 					"/>
					<polyline style="fill:none;stroke:#303669;strokeLinecap:round;strokeLinejoin:round;stroke-miterlimit:10;" points="
						276.369,188.041 270.237,193.398 263.977,197.197 					"/>
					<polyline style="fill:none;stroke:#303669;strokeLinecap:round;strokeLinejoin:round;stroke-miterlimit:10;" points="
						274.325,193.748 270.79,196.516 265.467,199.88 					"/>
				</g>
				<path style="fill:#1F234A;" d="M256.857,213.533l-23.99,18.818l-0.563,7.5c-6.723-0.363-9.352,10.366-0.123,11.03
					L256.857,213.533z"/>
				<circle style="fill:#303669;" cx="265.616" cy="123.849" r="1.748"/>
				<circle style="fill:#303669;" cx="277.946" cy="126.304" r="1.748"/>
				<path style="fill:none;stroke:#303669;strokeLinecap:round;strokeLinejoin:round;stroke-miterlimit:10;" d="M270.929,122.101
					l-0.469,3.891l-1.896,3.412c-0.374,0.672,0.044,1.511,0.806,1.617l3.247,0.455"/>
				<path style="fill:none;stroke:#303669;stroke-width:2;stroke-miterlimit:10;" d="M263.868,118.539c0,0,3.077-1.313,4.952,1.172"
					/>
				<path style="fill:none;stroke:#303669;stroke-width:2;stroke-miterlimit:10;" d="M275.561,121.304c0,0,3.149-1.5,5.727,1.078"/>
				<path style="fill:#303669;" d="M267.363,133.539h7.456c0,0,0.094,9.656-3,9.703
					C268.726,143.289,267.363,133.539,267.363,133.539z"/>
				<path style="fill:#FC9774;" d="M285.648,130.726l6.086-3.53c1.866-1.082,4.249-0.571,5.507,1.181v0
					c1.407,1.96,0.873,4.701-1.168,5.989l-3.514,2.217c-1.872,1.182-4.191,1.413-6.26,0.625l-0.651-0.248V130.726z"/>
				
					<line style="fill:none;stroke:#303669;strokeLinecap:round;strokeLinejoin:round;stroke-miterlimit:10;" x1="286.351" y1="134.101" x2="294.226" y2="130.117"/>
				<path style="fill:#B84747;" d="M273.434,136.679c-1.92,0-3.66,0.72-4.953,1.887c0.728,2.377,1.826,4.698,3.339,4.676
					c1.891-0.029,2.589-3.645,2.847-6.455C274.266,136.721,273.855,136.679,273.434,136.679z"/>
				<path style="fill:#4B72A6;" d="M252.02,111.404l43.945,12.337c1.701,0.477,3.41-0.674,3.638-2.425
					c0.765-5.872,0.443-17.955-14.05-21.765c-16.572-4.357-20.223,6.465-33.507,9.911
					C251.049,109.72,251.028,111.125,252.02,111.404z"/>
				
					<line style="fill:none;stroke:#FFF0DD;strokeLinecap:round;strokeLinejoin:round;stroke-miterlimit:10;" x1="261.343" y1="109.539" x2="296.901" y2="119.711"/>
				<polyline style="fill:none;stroke:#1F234A;strokeLinecap:round;strokeLinejoin:round;stroke-miterlimit:10;" points="
					232.867,232.351 258.031,212.612 243.648,193.398 206.804,217.304 				"/>
				
					<line style="fill:none;stroke:#1F234A;strokeLinecap:round;strokeLinejoin:round;stroke-miterlimit:10;" x1="231.835" y1="183.882" x2="231.279" y2="201.423"/>
				<path style="fill:none;stroke:#1F234A;strokeLinecap:round;strokeLinejoin:round;stroke-miterlimit:10;" d="M288.577,161.547
					c-4.922,3.656-18.562,3.938-23.836,0.281"/>
				<path style="fill:none;stroke:#1F234A;strokeLinecap:round;strokeLinejoin:round;stroke-miterlimit:10;" d="M311.382,177.507
					c0,0-13.256,12.409-13.354,29.196"/>
				<g>
					<path style="fill:#303669;" d="M302.812,206.717h5.51c-3.52,0-3.29,5.14-0.58,5.14l-5.2-0.06c-0.53-1.57-0.5-3.47,0.26-5.08
						H302.812z"/>
					<path style="fill:#5A9A9C;" d="M308.322,206.717c3.51,0,4.23,8.27-1.99,8.27c-0.22,0-0.43-0.02-0.63-0.06
						c-1.51-0.27-2.62-1.53-3.16-3.13l5.2,0.06C305.032,211.857,304.802,206.717,308.322,206.717z"/>
					<path style="fill:#93C9B1;" d="M275.362,203.317h33.55c-3.26,0-5.2,1.49-6.1,3.4h-0.01c-0.76,1.61-0.79,3.51-0.26,5.08
						c0.54,1.6,1.65,2.86,3.16,3.13l-0.01,0.06h-25.27h-7.64C267.442,214.987,266.242,203.317,275.362,203.317z"/>
					<path style="fill:#FFF0DD;" d="M305.692,214.987l0.01-0.06c0.2,0.04,0.41,0.06,0.63,0.06c6.22,0,5.5-8.27,1.99-8.27h-5.51
						c0.9-1.91,2.84-3.4,6.1-3.4c14.44,0,6.84,32.91,26.25,55.31h-33.93c-2.72,0-5.29-1.29-6.87-3.5
						c-9.61-13.38-11.19-29.47-13.94-40.14H305.692z"/>
				</g>
				<g>
					<path style="fill:#FC9774;" d="M326.083,243.56l2.509-10.318c0.36-1.479,0.215-3.035-0.412-4.422l-3.309-7.325
						c-1.215-2.689-4.065-4.247-6.984-3.819l-10.082,1.48c-1.223,0.18-2.059,1.331-1.85,2.549l0,0
						c0.193,1.129,1.219,1.921,2.36,1.822l10.989-0.95l-10.612,3.972c-1.123,0.42-1.748,1.62-1.449,2.781l0,0
						c0.313,1.217,1.53,1.971,2.759,1.709l0.372-0.079l0.458,1.503c0.273,0.896,1.211,1.411,2.113,1.161l1.296-0.359l0.377,1.363
						c0.309,1.116,1.387,1.839,2.537,1.7l5.442-0.657c0.41-0.049,0.794,0.201,0.909,0.597
						C323.912,237.664,324.911,240.93,326.083,243.56z"/>
					
						<line style="fill:none;stroke:#303669;strokeLinecap:round;strokeLinejoin:round;stroke-miterlimit:10;" x1="315.683" y1="232.96" x2="324.601" y2="230.583"/>
					
						<line style="fill:none;stroke:#303669;strokeLinecap:round;strokeLinejoin:round;stroke-miterlimit:10;" x1="311.382" y1="230.195" x2="322.491" y2="225.648"/>
				</g>
				<path style="fill:none;stroke:#303669;strokeLinecap:round;strokeLinejoin:round;stroke-miterlimit:10;" d="M323.823,237.328
					c0,0,2.376,9.466,11.339,21.299h-23.78"/>
				<path style="fill:#303669;" d="M205.751,240.692c0-8.959-7.263-16.222-16.222-16.222c-2.418,0-4.704,0.544-6.766,1.492
					c0.242,4.705,1.925,9.366,5.112,13.263l0,0c4.202,5.139,10.19,7.953,16.345,8.312
					C205.192,245.456,205.751,243.142,205.751,240.692z"/>
				<path style="fill:#303669;" d="M346.292,246.417c0,2.476,0.571,4.812,1.562,6.911c6.866-0.43,13.257-4.451,16.43-11.005h0
					c1.807-3.733,2.333-7.842,1.691-11.749c-1.117-0.243-2.273-0.379-3.462-0.379C353.555,230.195,346.292,237.458,346.292,246.417z
					"/>
			</g>
			<g>
				<g>
					<path style="fill:#E8445C;" d="M386.029,203.772c2.381-1.786,3.745-4.619,3.657-7.594l-0.018-0.601
						c-0.145-4.911,3.09-9.331,7.921-10.622c4.788-1.279,9.766,1.068,12.154,5.347c-0.801-4.834,1.627-9.773,6.168-11.758
						c4.581-2.003,9.867-0.564,12.816,3.365l0.361,0.481c1.786,2.381,4.619,3.745,7.594,3.657l0.601-0.018
						c4.911-0.145,9.331,3.09,10.622,7.921c1.279,4.788-1.068,9.766-5.347,12.154c4.834-0.801,9.773,1.627,11.758,6.168
						c2.003,4.581,0.564,9.867-3.365,12.816l-0.481,0.361c-2.381,1.786-3.745,4.619-3.657,7.594l0.018,0.601
						c0.145,4.911-3.09,9.331-7.921,10.622c-4.788,1.28-9.766-1.068-12.154-5.347c0.801,4.834-1.627,9.773-6.168,11.758
						c-4.581,2.003-9.867,0.564-12.816-3.365l-0.361-0.481c-1.786-2.381-4.619-3.745-7.594-3.657l-0.601,0.018
						c-4.911,0.145-9.331-3.09-10.622-7.921c-1.28-4.788,1.068-9.766,5.347-12.154c-4.834,0.802-9.773-1.627-11.759-6.168
						c-2.003-4.581-0.564-9.867,3.365-12.816L386.029,203.772z"/>
					<g>
						
							<line style="fill:none;stroke:#1F234A;stroke-width:1.1994;strokeLinecap:round;strokeLinejoin:round;stroke-miterlimit:10;" x1="437.045" y1="208.031" x2="395.929" y2="222.42"/>
						
							<line style="fill:none;stroke:#1F234A;stroke-width:1.1994;strokeLinecap:round;strokeLinejoin:round;stroke-miterlimit:10;" x1="411.769" y1="196.093" x2="426.06" y2="236.929"/>
					</g>
					<g>
						<g>
							<g>
								
									<line style="fill:none;stroke:#F78585;stroke-width:1.2175;strokeLinecap:round;strokeLinejoin:round;stroke-miterlimit:10;" x1="418.249" y1="214.609" x2="430.964" y2="188.204"/>
								
									<line style="fill:none;stroke:#F78585;stroke-width:1.2175;strokeLinecap:round;strokeLinejoin:round;stroke-miterlimit:10;" x1="418.249" y1="214.609" x2="439.01" y2="193.878"/>
								
									<line style="fill:none;stroke:#F78585;stroke-width:1.2175;strokeLinecap:round;strokeLinejoin:round;stroke-miterlimit:10;" x1="418.249" y1="214.609" x2="421.511" y2="185.452"/>
							</g>
							<g>
								
									<line style="fill:none;stroke:#F78585;stroke-width:1.2175;strokeLinecap:round;strokeLinejoin:round;stroke-miterlimit:10;" x1="418.249" y1="214.609" x2="405.534" y2="241.014"/>
								
									<line style="fill:none;stroke:#F78585;stroke-width:1.2175;strokeLinecap:round;strokeLinejoin:round;stroke-miterlimit:10;" x1="418.249" y1="214.609" x2="397.488" y2="235.341"/>
								
									<line style="fill:none;stroke:#F78585;stroke-width:1.2175;strokeLinecap:round;strokeLinejoin:round;stroke-miterlimit:10;" x1="418.249" y1="214.609" x2="414.987" y2="243.767"/>
							</g>
						</g>
						<g>
							<g>
								
									<line style="fill:none;stroke:#F78585;stroke-width:1.2175;strokeLinecap:round;strokeLinejoin:round;stroke-miterlimit:10;" x1="418.249" y1="214.609" x2="444.654" y2="227.324"/>
								
									<line style="fill:none;stroke:#F78585;stroke-width:1.2175;strokeLinecap:round;strokeLinejoin:round;stroke-miterlimit:10;" x1="418.249" y1="214.609" x2="438.98" y2="235.371"/>
								
									<line style="fill:none;stroke:#F78585;stroke-width:1.2175;strokeLinecap:round;strokeLinejoin:round;stroke-miterlimit:10;" x1="418.249" y1="214.609" x2="447.407" y2="217.871"/>
							</g>
							<g>
								
									<line style="fill:none;stroke:#F78585;stroke-width:1.2175;strokeLinecap:round;strokeLinejoin:round;stroke-miterlimit:10;" x1="418.249" y1="214.609" x2="391.844" y2="201.895"/>
								
									<line style="fill:none;stroke:#F78585;stroke-width:1.2175;strokeLinecap:round;strokeLinejoin:round;stroke-miterlimit:10;" x1="418.249" y1="214.609" x2="397.518" y2="193.848"/>
								
									<line style="fill:none;stroke:#F78585;stroke-width:1.2175;strokeLinecap:round;strokeLinejoin:round;stroke-miterlimit:10;" x1="418.249" y1="214.609" x2="389.091" y2="211.348"/>
							</g>
						</g>
					</g>
				</g>
				<g>
					<path style="fill:#1F234A;" d="M419.996,193.864c2.125-2.089,5.692-2.627,8.865-1.099c3.173,1.528,4.976,4.653,4.668,7.616
						c4.595,1.22,7.194,5.477,5.012,10.006l-10.292,10.213l-11.317-3.064l-9.452-6.937l1.567-14.415
						C411.229,191.656,416.178,191.033,419.996,193.864z"/>
					<g>
						
							<line style="fill:none;stroke:#F78585;stroke-width:1.2175;strokeLinecap:round;strokeLinejoin:round;stroke-miterlimit:10;" x1="427.259" y1="196.093" x2="417.645" y2="216.059"/>
						
							<line style="fill:none;stroke:#F78585;stroke-width:1.2175;strokeLinecap:round;strokeLinejoin:round;stroke-miterlimit:10;" x1="434.625" y1="204.375" x2="417.645" y2="216.059"/>
						
							<line style="fill:none;stroke:#F78585;stroke-width:1.2175;strokeLinecap:round;strokeLinejoin:round;stroke-miterlimit:10;" x1="416.191" y1="195.499" x2="417.645" y2="216.059"/>
					</g>
					
						<ellipse transform="matrix(0.4338 -0.901 0.901 0.4338 46.9495 498.0314)" style="fill:#E8445C;" cx="419.764" cy="211.657" rx="9.609" ry="13.128"/>
					<path style="fill:#F78585;" d="M412.134,208.957c0,0,4.198-0.35,8.176,1.566c3.979,1.916,6.322,5.416,6.322,5.416
						c5.896-6.274,11.909-5.551,11.909-5.551c-3.74,7.767-12.864,20.584-25.214,14.637c-12.351-5.947-8.02-21.071-4.28-28.839
						C409.048,196.185,413.363,200.435,412.134,208.957z"/>
				</g>
			</g>
		</g>
	</g>
</g>
</svg>
